<svg width="192" height="162" viewBox="0 0 192 162" fill="none" xmlns="http://www.w3.org/2000/svg">
<path d="M17.3152 123.468C12.7908 123.468 11.3001 128.297 9.14832 133.04L0.463115 152.185C-1.68867 156.929 4.10566 161.758 8.63007 161.758H183.37C187.894 161.758 193.689 156.929 191.537 152.185L182.852 133.04C180.7 128.297 179.209 123.468 174.685 123.468H17.3152ZM63.5739 144.527H128.426C129.709 144.527 130.741 145.738 130.741 147.241C130.741 148.744 129.709 149.954 128.426 149.954H63.5739C62.2914 149.954 61.2593 148.744 61.2593 147.241C61.2593 145.738 62.2914 144.527 63.5739 144.527Z" fill="#043A70"/>
<path d="M131.041 7.78842H115.826V23.0031H131.041V7.78842Z" fill="#043A70"/>
<path d="M126.177 33.3546H103.174V56.3577H126.177H126.178V33.3546H126.177Z" fill="#043A70"/>
<path d="M158.382 54.5554H130.126V82.8113H158.382V54.5554Z" fill="#043A70"/>
<path d="M184.836 3.03878e-06H138.829V46.0064H184.836H184.836V3.03878e-06H184.836Z" fill="#043A70"/>
<path d="M115.826 69.0096H100.611V84.2243H115.826V69.0096Z" fill="#043A70"/>
<path d="M92.8225 80.511H77.6078V95.7258H92.8225V80.511Z" fill="#043A70"/>
<path d="M96.2731 57.5075H81.0583V72.7223H96.2731V57.5075Z" fill="#043A70"/>
<path d="M172.391 82.3242V111.68C172.391 116.099 169.045 119.657 164.89 119.657H26.7306C22.5751 119.657 19.2296 116.099 19.2296 111.68V31.9085C19.2296 27.4893 22.5751 23.9315 26.7306 23.9315H95.8103" stroke="#043A70" stroke-width="14" stroke-linecap="round" stroke-linejoin="round"/>
</svg>
