<svg width="57" height="57" viewBox="0 0 57 57" fill="none" xmlns="http://www.w3.org/2000/svg">
<path d="M20.3031 36.1043H11.6332C6.3129 36.1042 1.99998 31.3054 2 25.3858C2.00549 19.8995 5.73332 15.3036 10.6377 14.7366C11.644 7.41767 17.2977 2.00934 23.9522 2C28.5941 2.00284 32.9084 4.66178 35.3731 9.03848C36.3858 8.51343 37.4891 8.23967 38.6065 8.23621C42.1311 8.24 45.2044 10.9035 46.07 14.7051C51.1004 15.1148 54.995 19.7725 55 25.3844C54.995 30.8922 51.2391 35.4992 46.3129 36.0402L44.1572 36.1043H37.643" stroke="#7833A9" stroke-width="4" stroke-linecap="round"/>
<path d="M28.2883 32.4453V55.0001L36.9115 45.9782L28.2883 55.0001L19.6652 45.9782" stroke="#7833A9" stroke-width="4" stroke-linecap="round" stroke-linejoin="round"/>
</svg>
