<svg width="53" height="55" viewBox="0 0 53 55" fill="none" xmlns="http://www.w3.org/2000/svg">
<path d="M3.69968 34.5045C5.74295 34.5045 7.39935 32.7569 7.39935 30.601C7.39935 28.4452 5.74295 26.6975 3.69968 26.6975C1.6564 26.6975 0 28.4452 0 30.601C0 32.7569 1.6564 34.5045 3.69968 34.5045Z" fill="#00A652"/>
<path d="M38.0801 6.44533C39.767 6.44533 41.1345 5.00249 41.1345 3.22266C41.1345 1.44283 39.767 0 38.0801 0C36.3932 0 35.0258 1.44283 35.0258 3.22266C35.0258 5.00249 36.3932 6.44533 38.0801 6.44533Z" fill="#00A652"/>
<path d="M48.4399 40.9456C50.9584 40.9456 53 38.7915 53 36.1343C53 33.4771 50.9584 31.323 48.4399 31.323C45.9215 31.323 43.8799 33.4771 43.8799 36.1343C43.8799 38.7915 45.9215 40.9456 48.4399 40.9456Z" fill="#00A652"/>
<path d="M31.4902 31.4189C34.6264 31.4189 37.1688 28.7364 37.1688 25.4275C37.1688 22.1185 34.6264 19.436 31.4902 19.436C28.3541 19.436 25.8117 22.1185 25.8117 25.4275C25.8117 28.7364 28.3541 31.4189 31.4902 31.4189Z" stroke="#00A652" stroke-width="3.45568" stroke-linecap="round" stroke-linejoin="round"/>
<path d="M17.5487 53.0003C20.038 53.0003 22.0561 50.8711 22.0561 48.2445C22.0561 45.618 20.038 43.4888 17.5487 43.4888C15.0593 43.4888 13.0412 45.618 13.0412 48.2445C13.0412 50.8711 15.0593 53.0003 17.5487 53.0003Z" stroke="#00A652" stroke-width="2.74298" stroke-linecap="round" stroke-linejoin="round"/>
<path d="M7.56524 11.9341C9.69915 11.9341 11.429 10.1089 11.429 7.85742C11.429 5.60594 9.69915 3.78076 7.56524 3.78076C5.43134 3.78076 3.70146 5.60594 3.70146 7.85742C3.70146 10.1089 5.43134 11.9341 7.56524 11.9341Z" stroke="#00A652" stroke-width="2.35129" stroke-linecap="round" stroke-linejoin="round"/>
<path d="M5.86784 29.7394L25.7428 25.2458" stroke="#00A652" stroke-width="1.10848"/>
<path d="M10.9786 10.2673L26.3107 21.6511" stroke="#00A652" stroke-width="1.10848"/>
<path d="M20.0123 44.0577L29.5354 30.9836" stroke="#00A652" stroke-width="1.10848"/>
<path d="M46.7536 34.2329L36.5321 27.6423" stroke="#00A652" stroke-width="1.10848"/>
<path d="M38.2357 3.07739L32.8411 18.9547" stroke="#00A652" stroke-width="1.10848"/>
</svg>
