<svg width="126" height="40" viewBox="0 0 126 40" fill="none" xmlns="http://www.w3.org/2000/svg">
<path d="M0 0.20385H9.36356C14.078 0.20385 16.5208 2.88356 16.5208 6.68268C16.5208 8.6843 15.7744 10.6188 12.959 11.8739V11.9409C15.605 12.5515 16.8939 15.0631 16.8939 17.5058C16.8939 21.6781 13.8072 24.3579 10.1769 24.3579H0V0.20385ZM3.66357 3.46041V10.3813H8.95547C11.602 10.3813 12.8571 8.82158 12.8571 6.92136C12.8571 5.05557 11.602 3.46041 8.95547 3.46041H3.66357ZM3.66357 13.6379V20.8981H9.29487C12.0089 20.8981 13.2303 19.1684 13.2303 17.2683C13.2303 15.3681 12.0089 13.6379 9.29487 13.6379H3.66357Z" fill="#01A6E6"/>
<path d="M20.4894 0.20385H23.9498V3.6648H20.4894V0.20385ZM20.4894 7.15887H23.9498V24.3579H20.4894V7.15887Z" fill="#01A6E6"/>
<path d="M29.5467 9.16107C30.4969 8.1073 32.0907 6.95463 34.7706 6.95463C37.4509 6.95463 39.0453 8.1073 39.9949 9.16107C41.3181 10.6188 41.8607 12.0439 41.8607 15.7413C41.8607 19.4729 41.3181 20.8981 39.9949 22.3564C39.0453 23.4078 37.4509 24.5611 34.7706 24.5611C32.0907 24.5611 30.4969 23.4078 29.5467 22.3564C28.2235 20.8981 27.6809 19.4729 27.6809 15.7413C27.6809 12.0439 28.2235 10.6188 29.5467 9.16107ZM37.5527 11.6707C37.0433 10.9581 35.9581 10.4156 34.7706 10.4156C33.5835 10.4156 32.4978 10.9581 31.9889 11.6707C31.3445 12.5864 31.1407 13.2647 31.1407 15.7413C31.1407 18.251 31.3445 18.9291 31.9889 19.8466C32.4978 20.5592 33.5835 21.1013 34.7706 21.1013C35.9581 21.1013 37.0433 20.5592 37.5527 19.8466C38.1965 18.9291 38.4009 18.251 38.4009 15.7744C38.4009 13.2647 38.1965 12.5864 37.5527 11.6707Z" fill="#01A6E6"/>
<path d="M59.297 22.4577C57.8724 23.6785 55.9729 24.561 53.5977 24.561C49.799 24.561 47.1868 22.322 46.033 20.2186C45.2529 18.7947 44.981 18.082 44.981 12.2803C44.981 6.47953 45.2529 5.76802 46.033 4.34297C47.1868 2.23952 49.799 -3.62396e-05 53.5977 -3.62396e-05C57.3974 -3.62396e-05 60.0101 2.23952 61.1628 4.34297C61.944 5.76802 62.216 6.47953 62.216 12.2803C62.216 17.5058 62.0112 18.5897 61.3329 19.8466L64.5225 22.3906L62.3505 24.9003L59.297 22.4577ZM53.2251 17.607L55.3953 15.0961L58.2113 17.3352C58.4831 16.4195 58.5506 14.9616 58.5506 12.2803C58.5506 7.32773 58.2794 6.64949 57.3292 5.42751C56.583 4.47748 55.3284 3.66473 53.5977 3.66473C51.8686 3.66473 50.6129 4.47748 49.8665 5.42751C48.9163 6.64949 48.6457 7.32773 48.6457 12.2803C48.6457 17.2338 48.9163 17.9115 49.8665 19.134C50.6129 20.0825 51.8686 20.898 53.5977 20.898C54.7183 20.898 55.634 20.5591 56.3122 20.0498L53.2251 17.607Z" fill="#86C922"/>
<path d="M66.1823 7.15886H69.6432V17.4038C69.6432 19.743 71.1015 21.1013 73.0705 21.1013C75.0032 21.1013 76.4617 19.743 76.4617 17.4038V7.15886H79.9215V24.3578H76.4617V22.5252H76.3941C75.3083 23.8828 73.7487 24.5611 71.9499 24.5611C69.2357 24.5611 66.1823 22.4921 66.1823 18.5898V7.15886Z" fill="#86C922"/>
<path d="M93.4231 22.8314H93.3544C92.643 24.0173 91.4555 24.5611 89.1163 24.5611C85.2815 24.5611 83.0436 22.2888 83.0436 19.3029C83.0436 16.5556 84.942 14.2148 88.6412 14.2148H93.4231V12.417C93.4231 10.7876 92.3728 10.2112 89.8946 10.2112C88.0975 10.2112 87.2503 10.5501 86.638 11.5345L83.925 9.46553C85.2471 7.63285 87.1473 6.95461 89.7258 6.95461C93.9668 6.95461 96.883 8.37967 96.883 12.6208V24.3578H93.4231V22.8314ZM93.4231 17.0651H89.285C87.2503 17.0651 86.3003 17.8778 86.3003 19.1341C86.3003 20.2874 87.216 21.3044 89.557 21.3044C92.4386 21.3044 93.4231 20.9999 93.4231 18.3186V17.0651Z" fill="#86C922"/>
<path d="M101.362 7.15884H104.821V8.99034H104.89C105.975 7.63283 107.536 6.95459 109.367 6.95459C112.047 6.95459 115.101 9.02302 115.101 12.9253V24.3578H111.641V14.1128C111.641 11.772 110.181 10.4155 108.248 10.4155C106.281 10.4155 104.821 11.772 104.821 14.1128V24.3578H101.362V7.15884Z" fill="#86C922"/>
<path d="M119.783 1.93335H123.242V7.15885H125.752V9.80427H123.242V19.8123C123.242 20.7624 123.614 21.1013 124.463 21.1013H125.752V24.3578H123.955C121.545 24.3578 119.783 22.8314 119.783 20.1186V9.80427H118.051V7.15885H119.783V1.93335Z" fill="#86C922"/>
<path d="M0.00976562 29.2566H1.53678L4.58852 36.1998L7.58189 29.2566H9.10834V39.9103H7.49205V33.2665H7.4617L5.23242 38.3838H3.88569L1.65697 33.2665H1.6255V39.9103H0.00976562V29.2566Z" fill="#B0B1B5"/>
<path d="M11.4572 31.0818C11.9654 30.1534 13.1187 29.1662 14.7946 29.1662C16.4697 29.1662 17.6224 30.1534 18.1319 31.0818C18.4753 31.7096 18.5954 32.0244 18.5954 34.5828C18.5954 37.1417 18.4753 37.4578 18.1319 38.0856C17.6224 39.0128 16.4697 40 14.7946 40C13.1187 40 11.9654 39.0128 11.4572 38.0856C11.1126 37.4578 10.9941 37.1417 10.9941 34.5828C10.9941 32.0244 11.1126 31.7096 11.4572 31.0818ZM13.1479 37.6053C13.477 38.0255 14.031 38.3838 14.7946 38.3838C15.5575 38.3838 16.1115 38.0255 16.4406 37.6053C16.8595 37.0673 16.9786 36.7685 16.9786 34.5828C16.9786 32.3987 16.8595 32.0988 16.4406 31.5608C16.1115 31.1407 15.5575 30.7825 14.7946 30.7825C14.031 30.7825 13.477 31.1407 13.1479 31.5608C12.7295 32.0988 12.6093 32.3987 12.6093 34.5828C12.6093 36.7685 12.7295 37.0673 13.1479 37.6053Z" fill="#B0B1B5"/>
<path d="M20.481 29.2566H24.207C25.6127 29.2566 26.7659 29.8857 27.4533 31.0521C27.9769 31.9501 28.0222 32.3536 28.0222 34.5828C28.0222 36.9775 27.9027 37.3966 27.4235 38.1451C26.7951 39.1324 25.6876 39.9103 24.1016 39.9103H20.481V29.2566ZM22.0962 38.3838H24.0272C24.9396 38.3838 25.5834 38.0701 26.0018 37.4578C26.3607 36.918 26.4065 36.6181 26.4065 34.6435C26.4065 32.7279 26.3607 32.2648 25.9268 31.6805C25.4329 31.0074 24.8949 30.7825 24.0272 30.7825H22.0962V38.3838Z" fill="#B0B1B5"/>
<path d="M29.9072 29.2566H36.7159V30.7825H31.5241V33.8205H35.9524V35.2565H31.5241V38.3838H36.7159V39.9103H29.9072V29.2566Z" fill="#B0B1B5"/>
<path d="M38.2275 29.2566H39.8439V38.3838H45.0356V39.9103H38.2275V29.2566Z" fill="#B0B1B5"/>
<path d="M50.004 29.2566H51.5293V33.1319C52.0982 32.5933 52.7113 32.2339 53.4896 32.2339C54.4179 32.2339 55.0911 32.6534 55.5243 33.2211C55.9438 33.7609 56.0635 34.2543 56.0635 36.1098C56.0635 37.9803 55.9438 38.4742 55.5243 39.0128C55.0911 39.5817 54.4179 40 53.4896 40C52.7113 40 52.009 39.6418 51.5293 39.1176V39.9102H50.004V29.2566ZM51.5293 36.1098C51.5293 37.2162 51.6049 38.4742 53.0254 38.4742C54.4626 38.4742 54.5371 37.2918 54.5371 36.1098C54.5371 34.9428 54.4626 33.7609 53.0254 33.7609C51.6049 33.7609 51.5293 35.0178 51.5293 36.1098Z" fill="#B0B1B5"/>
<path d="M61.7496 39.2365H61.7182C61.4063 39.7614 60.8825 40 59.8483 40C58.1588 40 57.1714 38.9978 57.1714 37.6803C57.1714 36.4682 58.0093 35.4362 59.6394 35.4362H61.7496V34.6434C61.7496 33.9252 61.286 33.6705 60.1945 33.6705C59.4019 33.6705 59.0259 33.8204 58.7569 34.2543L57.5601 33.3409C58.1438 32.5332 58.9824 32.2339 60.1173 32.2339C61.99 32.2339 63.275 32.8629 63.275 34.7334V39.9102H61.7496V39.2365ZM61.7496 36.6937H59.9255C59.0259 36.6937 58.6063 37.0525 58.6063 37.6053C58.6063 38.1148 59.0115 38.5634 60.0447 38.5634C61.3175 38.5634 61.7496 38.4289 61.7496 37.2465V36.6937Z" fill="#B0B1B5"/>
<path d="M65.4757 37.5911C66.1339 38.2343 66.8523 38.5634 67.8711 38.5634C68.7382 38.5634 69.3648 38.2343 69.3648 37.5911C69.3648 37.0525 68.9613 36.8888 68.4404 36.843L67.0926 36.7228C65.8334 36.6181 64.9092 35.8701 64.9092 34.5685C64.9092 33.0266 66.1339 32.2339 67.7366 32.2339C69.0672 32.2339 69.9659 32.6386 70.7127 33.2664L69.7711 34.374C69.173 33.9549 68.5607 33.6705 67.7366 33.6705C66.7635 33.6705 66.4344 34.0597 66.4344 34.5828C66.4344 34.9124 66.6749 35.2417 67.436 35.3017L68.6952 35.3921C70.2662 35.4963 70.893 36.4544 70.893 37.6666C70.893 39.1479 69.5165 40 67.7508 40C66.5231 40 65.3871 39.5514 64.4141 38.6384L65.4757 37.5911Z" fill="#B0B1B5"/>
<path d="M73.5886 36.6937C73.5886 37.9356 74.3498 38.5634 75.3973 38.5634C75.981 38.5634 76.6078 38.2944 77.0571 37.8308L78.1646 38.7729C77.4177 39.6418 76.4446 40 75.4259 40C73.8691 40 72.0604 39.2526 72.0604 36.1401C72.0604 33.192 73.7204 32.2339 75.1883 32.2339C76.8625 32.2339 78.3163 33.4759 78.3163 35.4362V36.6937H73.5886ZM76.7881 35.4362C76.7423 34.284 76.087 33.6705 75.1883 33.6705C74.2897 33.6705 73.6144 34.284 73.5886 35.4362H76.7881Z" fill="#B0B1B5"/>
<path d="M83.9566 33.2063C84.3744 32.7428 85.0784 32.2339 86.2604 32.2339C87.4422 32.2339 88.1462 32.7428 88.5639 33.2063C89.1478 33.8502 89.3881 34.4786 89.3881 36.1098C89.3881 37.7559 89.1478 38.3838 88.5639 39.027C88.1462 39.4912 87.4422 40 86.2604 40C85.0784 40 84.3744 39.4912 83.9566 39.027C83.3727 38.3838 83.1324 37.7559 83.1324 36.1098C83.1324 34.4786 83.3727 33.8502 83.9566 33.2063ZM87.4879 34.3137C87.2618 33.9996 86.784 33.7609 86.2604 33.7609C85.7365 33.7609 85.2587 33.9996 85.0327 34.3137C84.7493 34.7178 84.6607 35.0178 84.6607 36.1098C84.6607 37.2162 84.7493 37.5167 85.0327 37.9202C85.2587 38.2343 85.7365 38.4742 86.2604 38.4742C86.784 38.4742 87.2618 38.2343 87.4879 37.9202C87.7713 37.5167 87.8628 37.2162 87.8628 36.1247C87.8628 35.0178 87.7713 34.7178 87.4879 34.3137Z" fill="#B0B1B5"/>
<path d="M91.2283 33.4914H90.4642V32.3243H91.2283V31.3211C91.2283 29.8999 92.1126 29.2566 93.2944 29.2566H94.2818V30.6933H93.4118C92.9196 30.6933 92.7564 30.8569 92.7564 31.3211V32.3243H94.2818V33.4914H92.7564V39.9103H91.2283V33.4914Z" fill="#B0B1B5"/>
<path d="M98.8748 29.2566H100.492V38.3838H105.683V39.9103H98.8748V29.2566Z" fill="#B0B1B5"/>
<path d="M107.194 39.9103H108.811V29.2567H107.194V39.9103Z" fill="#B0B1B5"/>
<path d="M111.054 29.2566H117.865V30.7825H112.674V33.9252H117.101V35.3618H112.674V39.9103H111.054V29.2566Z" fill="#B0B1B5"/>
<path d="M119.09 29.2566H125.898V30.7825H120.707V33.8205H125.137V35.2565H120.707V38.3838H125.898V39.9103H119.09V29.2566Z" fill="#B0B1B5"/>
</svg>
