<svg width="53" height="53" viewBox="0 0 53 53" fill="none" xmlns="http://www.w3.org/2000/svg">
<path d="M4.69121 40.2471C3.46542 40.2471 3.06154 41.7325 2.47855 43.1915L0.125472 49.0804C-0.457512 50.5394 1.11235 52.0248 2.33814 52.0248H49.6804C50.9062 52.0248 52.476 50.5394 51.893 49.0804L49.54 43.1915C48.957 41.7325 48.5531 40.2471 47.3273 40.2471H4.69121ZM17.2241 46.7248H34.7944C35.1419 46.7248 35.4216 47.0972 35.4216 47.5596C35.4216 48.022 35.1419 48.394 34.7944 48.394H17.2241C16.8766 48.394 16.597 48.022 16.597 47.5596C16.597 47.0972 16.8766 46.7248 17.2241 46.7248Z" fill="#283792"/>
<path d="M38.1078 2.49805H33.8959V6.70997H38.1078V2.49805Z" fill="#283792"/>
<path d="M36.7615 9.57544H30.3935V15.9435H36.7615H36.7615V9.57544H36.7615Z" fill="#283792"/>
<path d="M45.6768 15.4446H37.8546V23.2667H45.6768V15.4446Z" fill="#283792"/>
<path d="M53 0.341797H40.2639V13.0779H53H53V0.341797H53Z" fill="#283792"/>
<path d="M33.8959 19.446H29.684V23.658H33.8959V19.446Z" fill="#283792"/>
<path d="M27.5278 22.6299H23.3159V26.8418H27.5278V22.6299Z" fill="#283792"/>
<path d="M28.483 16.2617H24.2711V20.4737H28.483V16.2617Z" fill="#283792"/>
<path d="M47.1111 26.202V34.9307C47.1111 36.2447 46.1893 37.3026 45.0442 37.3026H6.97431C5.82925 37.3026 4.90741 36.2447 4.90741 34.9307V11.2115C4.90741 9.89746 5.82925 8.8396 6.97431 8.8396H26.0093" stroke="#283792" stroke-width="3.13308" stroke-linecap="round" stroke-linejoin="round"/>
</svg>
