<svg width="55" height="55" viewBox="0 0 55 55" fill="none" xmlns="http://www.w3.org/2000/svg">
<path d="M32.1972 21.3851L37.393 27.1579L45.1037 25.6443L47.6185 18.3577L42.4226 12.5849L34.7119 14.0985L32.1972 21.3851ZM21.9416 13.9346L24.2964 21.3042L32.1917 21.3916L34.7165 14.076L28.3815 9.46738L21.9416 13.9346Z" stroke="#F9B023" stroke-width="2.726" stroke-linecap="round" stroke-linejoin="round"/>
<path d="M42.4226 12.5847L44.1399 7.60889" stroke="#F9B023" stroke-width="2.726" stroke-linecap="round"/>
<path d="M35.6758 32.1337L37.3931 27.158" stroke="#F9B023" stroke-width="2.726" stroke-linecap="round"/>
<path d="M48.0919 30.0076L45.1037 25.6441" stroke="#F9B023" stroke-width="2.726" stroke-linecap="round"/>
<path d="M47.6185 18.3579L52.8839 17.3242" stroke="#F9B023" stroke-width="2.726" stroke-linecap="round"/>
<path d="M28.3816 9.46711L28.7233 4.22627" stroke="#F9B023" stroke-width="2.726" stroke-linecap="round"/>
<path d="M21.9416 13.9343L16.8531 12.2551" stroke="#F9B023" stroke-width="2.726" stroke-linecap="round"/>
<path d="M2 53.0002H6.6134L9.99654 21.4219L13.3797 53.0002H19.3771L22.222 34.9554L25.0669 53.0002H30.603L33.8324 42.1733L36.6004 51.1957L39.3684 45.7823L42.5978 53.0002H52.2679" stroke="#F9B023" stroke-width="2.726" stroke-linecap="round" stroke-linejoin="round"/>
</svg>
