<svg width="308" height="80" viewBox="0 0 308 80" fill="none" xmlns="http://www.w3.org/2000/svg">
<g clip-path="url(#clip0_244894_127)">
<path d="M162.212 29.1323L150.845 33.9529L151.524 35.554L162.891 30.7334L162.212 29.1323Z" fill="#929497"/>
<path d="M104.074 27.7223L102.824 28.9315L119.028 45.6803L120.278 44.4711L104.074 27.7223Z" fill="#929497"/>
<path d="M140.228 4.47327L133.245 14.7631L134.685 15.7396L141.667 5.4498L140.228 4.47327Z" fill="#929497"/>
<path d="M150.048 35.2474L148.307 58.4865L150.041 58.6163L151.782 35.3773L150.048 35.2474Z" fill="#929497"/>
<path d="M118.874 43.6054L117.145 43.7934L119.043 61.2549L120.772 61.0669L118.874 43.6054Z" fill="#929497"/>
<path d="M109.538 18.8878L107.913 19.5068L116.207 41.2847L117.832 40.6657L109.538 18.8878Z" fill="#929497"/>
<path d="M119.842 43.6932L118.4 44.6651L131.422 63.9914L132.864 63.0195L119.842 43.6932Z" fill="#929497"/>
<path d="M103.724 39.4174L103.431 41.1316L120.745 44.0914L121.038 42.3771L103.724 39.4174Z" fill="#929497"/>
<path d="M117.357 42.2554L107.976 50.6805L109.138 51.9744L118.519 43.5493L117.357 42.2554Z" fill="#929497"/>
<path d="M118.518 6.98816L117.671 8.50729L132.862 16.9751L133.709 15.456L118.518 6.98816Z" fill="#929497"/>
<path d="M130.004 4.13854L128.354 4.68793L132.282 16.486L133.932 15.9367L130.004 4.13854Z" fill="#929497"/>
<path d="M149.408 8.81342L132.032 16.3941L132.728 17.9882L150.103 10.4075L149.408 8.81342Z" fill="#929497"/>
<path d="M159.145 18.8986L150.814 32.5578L152.298 33.4633L160.629 19.8041L159.145 18.8986Z" fill="#929497"/>
<path d="M152.682 34.6817L151.876 36.2229L162.819 41.9437L163.625 40.4024L152.682 34.6817Z" fill="#929497"/>
<path d="M152.238 35.0988L150.634 35.7706L157.05 51.0905L158.654 50.4187L152.238 35.0988Z" fill="#929497"/>
<path d="M135.066 16.2473L131.587 16.2802L131.753 33.8454L135.231 33.8125L135.066 16.2473Z" fill="#58595B"/>
<path d="M132.54 32.3513L117.094 41.5943L118.881 44.579L134.326 35.336L132.54 32.3513Z" fill="#58595B"/>
<path d="M133.504 32.0688L133.386 35.545L151.114 36.1502L151.233 32.674L133.504 32.0688Z" fill="#58595B"/>
<path d="M135.227 42.0746C139.787 41.1196 142.709 36.6491 141.754 32.0895C140.799 27.5298 136.329 24.6077 131.769 25.5626C127.21 26.5176 124.287 30.9881 125.242 35.5477C126.197 40.1074 130.668 43.0296 135.227 42.0746Z" fill="#EB008B"/>
<path d="M134.208 20.511C136.558 20.0187 138.064 17.7144 137.572 15.364C137.08 13.0137 134.775 11.5074 132.425 11.9997C130.075 12.4919 128.568 14.7963 129.061 17.1466C129.553 19.497 131.857 21.0032 134.208 20.511Z" fill="#58595B"/>
<path d="M118.905 47.2976C121.256 46.8053 122.762 44.5009 122.27 42.1506C121.777 39.8003 119.473 38.294 117.123 38.7862C114.772 39.2785 113.266 41.5829 113.758 43.9332C114.251 46.2835 116.555 47.7898 118.905 47.2976Z" fill="#58595B"/>
<path d="M151.696 38.7746C154.047 38.2824 155.553 35.978 155.061 33.6277C154.568 31.2773 152.264 29.7711 149.914 30.2633C147.563 30.7556 146.057 33.06 146.549 35.4103C147.042 37.7606 149.346 39.2669 151.696 38.7746Z" fill="#58595B"/>
<path d="M160.649 22.189C162.294 21.8444 163.348 20.2313 163.004 18.5861C162.659 16.9408 161.046 15.8865 159.401 16.231C157.755 16.5756 156.701 18.1887 157.046 19.8339C157.39 21.4791 159.003 22.5335 160.649 22.189Z" fill="#929497"/>
<path d="M163.513 43.9248C165.158 43.5802 166.213 41.9671 165.868 40.3219C165.524 38.6767 163.911 37.6223 162.265 37.9668C160.62 38.3114 159.566 39.9245 159.91 41.5697C160.255 43.2149 161.868 44.2693 163.513 43.9248Z" fill="#929497"/>
<path d="M158.731 54.3556C160.376 54.0111 161.43 52.398 161.086 50.7528C160.741 49.1075 159.128 48.0531 157.483 48.3977C155.838 48.7423 154.783 50.3554 155.128 52.0006C155.472 53.6458 157.085 54.7002 158.731 54.3556Z" fill="#929497"/>
<path d="M151.329 11.8435C152.974 11.4989 154.029 9.88582 153.684 8.24059C153.34 6.59536 151.726 5.54097 150.081 5.88555C148.436 6.23012 147.382 7.84318 147.726 9.48842C148.071 11.1336 149.684 12.188 151.329 11.8435Z" fill="#929497"/>
<path d="M129.69 6.88887C131.335 6.54429 132.39 4.93123 132.045 3.286C131.701 1.64077 130.088 0.58638 128.442 0.930958C126.797 1.27554 125.743 2.88859 126.087 4.53383C126.432 6.17906 128.045 7.23345 129.69 6.88887Z" fill="#929497"/>
<path d="M118.732 10.7987C120.377 10.4541 121.431 8.84105 121.087 7.19582C120.742 5.55059 119.129 4.4962 117.484 4.84078C115.839 5.18536 114.784 6.79841 115.129 8.44365C115.473 10.0889 117.087 11.1433 118.732 10.7987Z" fill="#929497"/>
<path d="M104.559 43.318C106.204 42.9735 107.259 41.3604 106.914 39.7152C106.569 38.0699 104.956 37.0155 103.311 37.3601C101.666 37.7047 100.611 39.3178 100.956 40.963C101.301 42.6082 102.914 43.6626 104.559 43.318Z" fill="#929497"/>
<path d="M109.6 54.2884C111.245 53.9439 112.299 52.3308 111.955 50.6856C111.61 49.0403 109.997 47.9859 108.352 48.3305C106.707 48.6751 105.652 50.2882 105.997 51.9334C106.342 53.5786 107.955 54.633 109.6 54.2884Z" fill="#929497"/>
<path d="M120.387 63.7617C122.032 63.4171 123.087 61.804 122.742 60.1588C122.398 58.5136 120.785 57.4592 119.139 57.8038C117.494 58.1483 116.44 59.7614 116.784 61.4066C117.129 63.0519 118.742 64.1063 120.387 63.7617Z" fill="#929497"/>
<path d="M19.6624 19.2174C28.8798 19.2174 31.8363 24.3478 31.8363 24.3478H32.0102C32.0102 24.3478 31.9233 23.3043 31.9233 21.8261V14.3478C31.9233 13.1304 31.2276 12.5217 30.0972 12.5217H26.7928V3.65216H36.8798C40.7928 3.65216 42.532 5.39129 42.532 9.30434V51.913C42.532 53.0435 43.2276 53.7391 44.358 53.7391H47.5754V62.6087H37.8363C34.0102 62.6087 32.6189 60.7826 32.6189 58.2609C32.6189 57.3043 32.6189 56.6956 32.6189 56.6956H32.445C32.445 56.6956 28.9667 63.5652 19.2276 63.5652C7.74934 63.5652 0.358032 54.5217 0.358032 41.3913C0.358032 28 8.44499 19.2174 19.6624 19.2174ZM32.1841 41.3913C32.1841 34.8696 28.7928 28.3478 21.7493 28.3478C15.9233 28.3478 11.1406 33.0435 11.1406 41.4782C11.1406 49.5652 15.4015 54.7826 21.5754 54.7826C27.0537 54.6956 32.1841 50.7826 32.1841 41.3913Z" fill="#005AA9"/>
<path d="M216.01 3.65216C212.01 3.65216 210.358 5.39129 210.358 9.30434V36.3478C210.358 39.7391 210.967 44.6956 210.967 44.6956H210.793C210.793 44.6956 208.184 39.8261 205.923 36.3478L183.576 3.65216H173.749V51.5652C173.749 52.6956 173.141 53.3043 172.01 53.3043H164.793C162.532 56.8696 159.749 60 156.445 62.6087H168.358H172.01H178.967C182.967 62.6087 184.619 60.9565 184.619 56.9565V30C184.619 26.6087 184.01 21.6522 184.01 21.6522H184.184C184.184 21.6522 186.793 26.6087 189.054 30L211.489 62.6087H221.228V14.6956C221.228 13.5652 221.923 12.8696 223.054 12.8696H226.619V3.65216H216.01Z" fill="#00ADEE"/>
<path d="M237.662 12.8696H232.271V3.65216H257.749C268.358 3.65216 276.01 9.13042 276.01 18.8695C276.01 25.3913 272.445 29.6522 268.88 31.4782V31.6522C275.314 33.5652 278.358 39.5652 278.358 45.5652C278.358 57.3913 268.967 62.6956 258.01 62.6956H243.314C239.401 62.6956 237.662 61.0435 237.662 57.0435V12.8696ZM257.836 27.7391C262.445 27.7391 264.967 24.4348 264.967 20.1739C264.967 15.913 262.445 12.8696 257.662 12.8696H248.532V27.7391H257.836ZM250.358 53.3913H258.793C264.097 53.3913 267.141 49.8261 267.141 44.8696C267.141 40 264.097 36.4348 258.793 36.4348H248.445V51.6522C248.532 52.7826 249.228 53.3913 250.358 53.3913Z" fill="#00ADEE"/>
<path d="M283.228 53.3913H290.01V12.8696H283.228V3.65216H306.184V12.8696H300.271V53.3913H306.184V62.6087H283.228V53.3913Z" fill="#00ADEE"/>
<path d="M110.445 62.6957L110.271 62.6087C106.967 60 104.184 56.8696 101.923 53.3044H71.7494H70.619C65.6625 52.7826 63.5755 49.9131 62.7929 43.2174H92.0103C92.0103 43.2174 92.2712 40.5218 92.2712 39.3044C92.2712 28.087 85.6625 19.2174 73.4886 19.2174C60.7929 19.2174 51.9233 28.3478 51.9233 41.3913C51.9233 53.4783 58.0103 62.6957 72.0973 62.6957C72.7929 62.6957 73.4886 62.6957 74.0973 62.6957H110.445ZM73.5755 27.3913C77.9233 27.3913 81.4016 30.8696 81.5755 35.9131H63.2277C64.3581 30.6087 68.1842 27.3913 73.5755 27.3913Z" fill="#005AA9"/>
<path d="M6.9667 80.1739L6.53192 80.2609L6.09714 79.8261C5.83627 80 5.5754 80.087 5.31453 80.1739C5.05366 80.2609 4.79279 80.2609 4.44496 80.2609C3.48844 80.2609 2.79279 79.913 2.35801 79.3044C1.92322 78.6957 1.66235 77.7391 1.66235 76.4348C1.66235 75.6522 1.74931 74.9565 2.01018 74.3478C2.27105 73.7391 2.61888 73.3043 3.14062 72.9565C3.66235 72.6087 4.18409 72.5217 4.87975 72.5217C5.22757 72.5217 5.5754 72.5217 5.83627 72.6087C6.18409 72.6087 6.53192 72.6956 6.87975 72.7826V74.2609H6.35801C6.27105 73.913 6.18409 73.6522 6.01018 73.4783C5.83627 73.3043 5.74931 73.1304 5.48844 73.0435C5.31453 72.9565 5.05366 72.9565 4.79279 72.9565C4.35801 72.9565 4.01018 73.0435 3.74931 73.3043C3.48844 73.5652 3.22757 73.913 3.05366 74.4348C2.87975 74.9565 2.79279 75.5652 2.79279 76.2609C2.79279 76.9565 2.87974 77.5652 2.9667 78.087C3.14061 78.6087 3.31453 78.9565 3.5754 79.2174C3.83627 79.4783 4.18409 79.5652 4.61888 79.5652C5.05366 79.5652 5.40148 79.4783 5.5754 79.3044C5.74931 79.1304 5.92322 78.7826 5.92322 78.4348V78.2609C5.92322 77.913 5.92322 77.6522 5.83627 77.5652C5.83627 77.3913 5.74931 77.3044 5.66236 77.2174C5.5754 77.1304 5.40149 77.0435 5.22757 77.0435V76.7826H7.48844V77.0435C7.31453 77.1304 7.22757 77.1304 7.22757 77.2174C7.22757 77.3044 7.05366 77.3044 7.05366 77.3913C7.05366 77.4783 6.9667 77.5652 6.9667 77.7391C6.9667 77.8261 6.9667 78 6.9667 78.2609V80.1739Z" fill="#231F20"/>
<path d="M13.7493 72.6957V74.3478H13.1406C13.0536 74.1739 13.0536 74 12.9667 73.913C12.8797 73.7391 12.8797 73.6522 12.7928 73.5652C12.7058 73.4783 12.6189 73.3913 12.6189 73.3044C12.5319 73.2174 12.4449 73.2174 12.358 73.2174C12.271 73.2174 12.0971 73.2174 12.0102 73.2174H10.271V76.087H11.4015C11.5754 76.087 11.6623 76.087 11.7493 76C11.8363 75.913 11.9232 75.9131 12.0102 75.7391C12.0971 75.6522 12.0971 75.4783 12.1841 75.2174H12.7058V77.3043H12.1841C12.0971 77.0435 12.0971 76.9565 12.0102 76.7826C11.9232 76.6087 11.8363 76.6087 11.7493 76.5217C11.6623 76.4348 11.5754 76.4348 11.4015 76.4348H10.1841V79.6522H11.9232C12.0971 79.6522 12.271 79.6522 12.358 79.5652C12.4449 79.5652 12.5319 79.4783 12.6189 79.3913C12.7058 79.3043 12.7928 79.2174 12.7928 79.1304C12.8797 79.0435 12.8797 78.8696 12.9667 78.7826C12.9667 78.6087 13.0536 78.4348 13.1406 78.1739H13.6623L13.5754 80.087H8.44495V79.8261C8.70582 79.7391 8.79277 79.7391 8.87973 79.6522C8.96669 79.5652 8.96669 79.4783 9.05364 79.3043C9.05364 79.1304 9.05364 78.9565 9.05364 78.6957V73.913C9.05364 73.6522 9.05364 73.4783 9.05364 73.3913C9.05364 73.3043 8.96669 73.2174 8.96669 73.1304C8.96669 73.0435 8.87973 73.0435 8.79277 72.9565C8.70582 72.9565 8.61886 72.8696 8.44495 72.8696V72.6087H13.7493V72.6957Z" fill="#231F20"/>
<path d="M16.7058 76.9565V78.8695C16.7058 79.1304 16.7058 79.3043 16.7058 79.4782C16.7058 79.5652 16.7928 79.6522 16.7928 79.7391C16.7928 79.8261 16.8797 79.8261 16.9667 79.913C17.0536 79.913 17.1406 80 17.3145 80V80.2609H14.9667V80C15.2275 79.913 15.3145 79.913 15.4015 79.8261C15.4884 79.7391 15.4884 79.6522 15.5754 79.4782C15.5754 79.3043 15.5754 79.1304 15.5754 78.8695V74.0869C15.5754 73.8261 15.5754 73.6522 15.5754 73.5652C15.5754 73.4783 15.4884 73.3913 15.4884 73.3043C15.4884 73.2174 15.4015 73.2174 15.3145 73.1304C15.2275 73.1304 15.1406 73.0435 14.9667 73.0435V72.7826H17.6623C18.5319 72.7826 19.1406 72.9565 19.5754 73.2174C20.0102 73.4782 20.1841 74 20.1841 74.6956C20.1841 75.2174 20.0102 75.6522 19.7493 76C19.4884 76.3478 19.0536 76.6087 18.5319 76.8695V76.9565C18.7928 77.0435 18.9667 77.2174 19.1406 77.3913C19.3145 77.5652 19.4884 77.8261 19.6623 78.1739L20.1841 79.0435C20.358 79.3043 20.4449 79.4783 20.5319 79.6522C20.6189 79.8261 20.7058 79.913 20.8797 80C20.9667 80.0869 21.1406 80.0869 21.3145 80.1739V80.4348H19.7493C19.5754 80.2609 19.4884 80 19.3145 79.8261C19.1406 79.6522 19.0536 79.3913 18.9667 79.1304L18.4449 78.1739C18.271 77.913 18.1841 77.6522 18.0971 77.5652C18.0102 77.3913 17.9232 77.3043 17.8362 77.3043C17.7493 77.2174 17.6623 77.2174 17.5754 77.2174C17.4884 77.2174 17.3145 77.2174 17.1406 77.2174H16.7058V76.9565ZM16.7058 73.1304V76.4348H17.3145C17.6623 76.4348 17.9232 76.4348 18.0971 76.3478C18.271 76.2609 18.4449 76.1739 18.6189 76.0869C18.7928 76 18.9667 75.7391 19.0536 75.5652C19.1406 75.3043 19.2275 75.0435 19.2275 74.6956C19.2275 74.3478 19.1406 74.0869 19.0536 73.8261C18.9667 73.5652 18.7928 73.3913 18.5319 73.3043C18.271 73.2174 17.9232 73.1304 17.5754 73.1304C17.2275 73.1304 16.9667 73.1304 16.7058 73.1304Z" fill="#231F20"/>
<path d="M29.9232 72.9565C29.7493 72.9565 29.6623 73.0435 29.5754 73.0435C29.4884 73.0435 29.4884 73.1304 29.4015 73.2174C29.4015 73.3043 29.3145 73.3913 29.3145 73.4783C29.3145 73.5652 29.3145 73.8261 29.3145 74V78.7826C29.3145 79.0435 29.3145 79.2174 29.3145 79.3043C29.3145 79.3913 29.4015 79.4783 29.4015 79.5652C29.4015 79.6522 29.4884 79.6522 29.5754 79.7391C29.6623 79.8261 29.7493 79.8261 29.9232 79.913V80.1739H27.6623V79.913C27.8363 79.8261 28.0102 79.8261 28.0971 79.7391C28.1841 79.6522 28.271 79.5652 28.271 79.4783C28.271 79.3913 28.358 79.1304 28.358 78.8696V76.7826C28.358 76.2609 28.358 75.6522 28.358 75.1304C28.358 74.5217 28.358 74.1739 28.445 74H28.358L26.1841 79.4783H25.5754L23.5754 73.913H23.4884C23.4884 74.1739 23.4884 74.5217 23.5754 75.1304C23.5754 75.7391 23.5754 76.3478 23.5754 76.9565V78.9565C23.5754 79.2174 23.5754 79.3913 23.5754 79.4783C23.5754 79.5652 23.6623 79.6522 23.6623 79.7391C23.6623 79.8261 23.7493 79.8261 23.8363 79.913C23.9232 80 24.0102 80 24.1841 80.087V80.3478H22.1841V80.087C22.445 80 22.5319 80 22.6189 79.913C22.7058 79.8261 22.7058 79.7391 22.7928 79.5652C22.7928 79.3913 22.7928 79.2174 22.7928 78.9565V74.1739C22.7928 73.913 22.7928 73.7391 22.7928 73.6522C22.7928 73.5652 22.7058 73.4783 22.7058 73.3913C22.7058 73.3043 22.6189 73.3043 22.5319 73.2174C22.445 73.2174 22.358 73.1304 22.1841 73.1304V72.8696H24.1841L26.0971 78.2609L28.271 72.8696H30.0971V72.9565H29.9232Z" fill="#231F20"/>
<path d="M35.0536 80.1739V79.913C35.2276 79.913 35.4015 79.8261 35.4884 79.8261C35.5754 79.7391 35.6623 79.7391 35.6623 79.6522C35.6623 79.5652 35.7493 79.4783 35.7493 79.3044C35.7493 79.2174 35.7493 79.0435 35.6623 78.8696C35.5754 78.6957 35.5754 78.5218 35.5754 78.3478L35.4015 77.6522H32.7928L32.6189 78.1739C32.5319 78.4348 32.4449 78.6957 32.4449 78.7826C32.4449 78.9565 32.358 79.0435 32.358 79.1304C32.358 79.3913 32.4449 79.4783 32.5319 79.6522C32.6189 79.7391 32.7928 79.8261 33.0536 79.8261V80.087H30.7058V79.8261C30.8797 79.8261 31.0536 79.6522 31.2276 79.4783C31.4015 79.3043 31.4884 78.9565 31.6623 78.6087L33.9232 72.5217H34.7928L36.7058 78.6957C36.7928 78.9565 36.8797 79.2174 36.9667 79.3913C37.0536 79.5652 37.1406 79.6522 37.2276 79.7391C37.3145 79.8261 37.4884 79.913 37.6623 79.913V80.1739H35.0536ZM32.8797 77.2174H35.2276L34.1841 73.6522L32.8797 77.2174Z" fill="#231F20"/>
<path d="M42.7928 77.2174C42.9667 77.4783 43.0537 77.6522 43.1406 77.8261C43.2276 78 43.3145 78.1739 43.4015 78.3478H43.4885C43.4885 78.0869 43.4885 77.6522 43.4015 77.0435C43.4015 76.3478 43.4015 75.7391 43.4015 75.2174V74.0869C43.4015 73.8261 43.4015 73.6522 43.4015 73.5652C43.4015 73.4783 43.4015 73.3913 43.3145 73.3043C43.3145 73.2174 43.2276 73.2174 43.1406 73.1304C43.0537 73.1304 42.9667 73.0435 42.7928 73.0435V72.7826H44.7928V73.0435C44.6189 73.1304 44.5319 73.1304 44.445 73.1304C44.358 73.1304 44.358 73.2174 44.2711 73.3043C44.2711 73.3913 44.1841 73.4783 44.1841 73.5652C44.1841 73.6522 44.1841 73.913 44.1841 74.1739V80.3478H43.4885L40.445 75.2174C40.2711 74.8696 40.0972 74.6956 40.0102 74.5217C39.9232 74.3478 39.8363 74.2609 39.7493 74.0869H39.6624C39.6624 74.3478 39.7493 74.8696 39.7493 75.6522C39.7493 76.4348 39.7493 77.1304 39.7493 77.8261V78.9565C39.7493 79.2174 39.7493 79.3913 39.7493 79.4782C39.7493 79.5652 39.8363 79.6522 39.8363 79.7391C39.8363 79.8261 39.9232 79.8261 40.0102 79.913C40.0972 80 40.1841 80 40.358 80.0869V80.3478H38.358V80.0869C38.6189 80 38.7059 80 38.7928 79.913C38.8798 79.8261 38.8798 79.7391 38.9667 79.5652C38.9667 79.3913 38.9667 79.2174 38.9667 78.9565V74.1739C38.9667 73.913 38.9667 73.7391 38.9667 73.6522C38.9667 73.5652 38.8798 73.4782 38.8798 73.3913C38.8798 73.3043 38.7928 73.3043 38.7059 73.2174C38.6189 73.2174 38.5319 73.1304 38.358 73.1304V72.8696H40.0972L42.7928 77.2174Z" fill="#231F20"/>
<path d="M52.9666 77.2174C53.1406 77.4783 53.2275 77.6522 53.3145 77.8261C53.4014 78 53.4884 78.1739 53.5753 78.3478H53.6623C53.6623 78.0869 53.6623 77.6522 53.5753 77.0435C53.5753 76.3478 53.5753 75.7391 53.5753 75.2174V74.0869C53.5753 73.8261 53.5753 73.6522 53.5753 73.5652C53.5753 73.4783 53.5753 73.3913 53.4884 73.3043C53.4884 73.2174 53.4014 73.2174 53.3145 73.1304C53.2275 73.1304 53.1406 73.0435 52.9666 73.0435V72.7826H54.9666V73.0435C54.7927 73.1304 54.7058 73.1304 54.6188 73.1304C54.5319 73.1304 54.5319 73.2174 54.4449 73.3043C54.4449 73.3913 54.358 73.4783 54.358 73.5652C54.358 73.6522 54.358 73.913 54.358 74.1739V80.3478H53.6623L50.6188 75.2174C50.4449 74.8696 50.271 74.6956 50.184 74.5217C50.0971 74.3478 50.0101 74.2609 49.9232 74.0869H49.8362C49.8362 74.3478 49.9232 74.8696 49.9232 75.6522C49.9232 76.4348 49.9232 77.1304 49.9232 77.8261V78.9565C49.9232 79.2174 49.9232 79.3913 49.9232 79.4782C49.9232 79.5652 50.0101 79.6522 50.0101 79.7391C50.0101 79.8261 50.0971 79.8261 50.184 79.913C50.271 80 50.3579 80 50.5319 80.0869V80.3478H48.5319V80.0869C48.7927 80 48.8797 80 48.9666 79.913C49.0536 79.8261 49.0536 79.7391 49.1406 79.5652C49.1406 79.3913 49.1406 79.2174 49.1406 78.9565V74.1739C49.1406 73.913 49.1406 73.7391 49.1406 73.6522C49.1406 73.5652 49.0536 73.4782 49.0536 73.3913C49.0536 73.3043 48.9666 73.3043 48.8797 73.2174C48.7927 73.2174 48.7058 73.1304 48.5319 73.1304V72.8696H50.271L52.9666 77.2174Z" fill="#231F20"/>
<path d="M61.4014 72.6957V74.3478H60.8797C60.7927 74.1739 60.7927 74 60.7058 73.913C60.6188 73.7391 60.6188 73.6522 60.5319 73.5652C60.4449 73.4783 60.358 73.3913 60.358 73.3044C60.271 73.2174 60.184 73.2174 60.0971 73.2174C60.0101 73.2174 59.8362 73.2174 59.7493 73.2174H58.0101V76.087H59.2275C59.4014 76.087 59.4884 76.087 59.5753 76C59.6623 75.913 59.7493 75.9131 59.8362 75.7391C59.9232 75.6522 59.9232 75.4783 60.0101 75.2174H60.5319V77.3043H60.0101C59.9232 77.0435 59.9232 76.9565 59.8362 76.7826C59.7493 76.6087 59.6623 76.6087 59.5753 76.5217C59.4884 76.4348 59.4014 76.4348 59.2275 76.4348H58.0101V79.6522H59.7493C59.9232 79.6522 60.0971 79.6522 60.184 79.5652C60.271 79.5652 60.358 79.4783 60.4449 79.3913C60.5319 79.3043 60.6188 79.2174 60.6188 79.1304C60.7058 79.0435 60.7058 78.8696 60.7927 78.7826C60.7927 78.6087 60.8797 78.4348 60.9667 78.1739H61.4884L61.4014 80.087H56.271V79.8261C56.5319 79.7391 56.6188 79.7391 56.7058 79.6522C56.7927 79.5652 56.7927 79.4783 56.8797 79.3043C56.8797 79.1304 56.8797 78.9565 56.8797 78.6957V73.913C56.8797 73.6522 56.8797 73.4783 56.8797 73.3913C56.8797 73.3043 56.7927 73.2174 56.7927 73.1304C56.7927 73.0435 56.7058 73.0435 56.6188 72.9565C56.5319 72.9565 56.4449 72.8696 56.271 72.8696V72.6087H61.4014V72.6957Z" fill="#231F20"/>
<path d="M62.445 72.6956H68.445V74.6087H67.9233C67.8363 74.2609 67.7493 74 67.6624 73.8261C67.5754 73.6522 67.4885 73.4782 67.4015 73.3913C67.3146 73.3043 67.2276 73.2174 67.1407 73.2174C67.0537 73.2174 66.8798 73.1304 66.7059 73.1304H66.0102V78.7826C66.0102 78.9565 66.0102 79.1304 66.0102 79.3044C66.0102 79.3913 66.0972 79.5652 66.0972 79.6522C66.1841 79.7392 66.1841 79.8261 66.2711 79.8261C66.358 79.8261 66.445 79.9131 66.7059 79.9131V80.1739H64.1841V79.9131C64.2711 79.9131 64.358 79.8261 64.445 79.8261C64.5319 79.8261 64.6189 79.7391 64.6189 79.7391C64.7059 79.7391 64.7059 79.6522 64.7928 79.5652C64.7928 79.4783 64.8798 79.3913 64.8798 79.3044C64.8798 79.2174 64.8798 79.0435 64.8798 78.7826V73.1304H64.1841C64.0102 73.1304 63.8363 73.1304 63.7493 73.2174C63.6624 73.2174 63.5754 73.3043 63.4015 73.3913C63.3146 73.4782 63.2276 73.6522 63.1406 73.8261C63.0537 74 62.9667 74.2609 62.8798 74.5217H62.358V72.6956H62.445Z" fill="#231F20"/>
<path d="M73.9232 74.0869L72.1841 80.2609H71.3145L69.7493 74.2609C69.6623 74 69.6623 73.8261 69.5754 73.6522C69.4884 73.4782 69.4884 73.3913 69.4015 73.3043C69.3145 73.2174 69.3145 73.1304 69.2275 73.1304C69.1406 73.0435 69.0536 73.0435 68.9667 73.0435V72.7826H71.3145V73.0435C71.0536 73.1304 70.9667 73.1304 70.8797 73.2174C70.7928 73.3043 70.7058 73.3913 70.7058 73.5652C70.7058 73.6522 70.7058 73.8261 70.7928 74C70.8797 74.1739 70.8797 74.3478 70.9667 74.6087L72.0971 78.9565L73.8363 72.6956H74.7928L76.271 78.9565L77.5754 74.7826C77.7493 74.2609 77.8363 73.913 77.8363 73.6522C77.8363 73.3913 77.7493 73.3043 77.6623 73.1304C77.5754 73.0435 77.4015 72.9565 77.2276 72.9565V72.6956H79.4015V72.9565C79.3145 72.9565 79.2276 73.0435 79.1406 73.0435C79.0536 73.0435 79.0536 73.1304 78.9667 73.2174C78.8797 73.3043 78.8797 73.3913 78.7928 73.5652C78.7058 73.7391 78.6189 73.913 78.5319 74.2609L76.5319 80.1739H75.7493L73.9232 74.0869Z" fill="#231F20"/>
<path d="M82.532 80.2609C82.0972 80.2609 81.6624 80.1739 81.3146 80C80.9667 79.8261 80.6189 79.6522 80.3581 79.3044C80.0972 78.9565 79.9233 78.6087 79.7494 78.087C79.5755 77.6522 79.5754 77.0435 79.5754 76.3478C79.5754 75.5652 79.6624 74.7826 79.9233 74.2609C80.1841 73.7391 80.532 73.2174 80.9667 72.9565C81.4015 72.6087 82.0102 72.5217 82.6189 72.5217C83.3146 72.5217 83.8363 72.6956 84.2711 72.9565C84.7059 73.2174 85.0537 73.6522 85.3146 74.2609C85.5754 74.7826 85.6624 75.4783 85.6624 76.3478C85.6624 77.2174 85.5754 77.913 85.3146 78.5217C85.0537 79.1304 84.7059 79.5652 84.1841 79.8261C83.7494 80.1739 83.1407 80.2609 82.532 80.2609ZM80.7059 76.3478C80.7059 77.4783 80.8798 78.3478 81.2276 78.9565C81.5754 79.5652 82.0102 79.8261 82.7059 79.8261C83.1407 79.8261 83.4885 79.7391 83.7494 79.4783C84.0102 79.2174 84.2711 78.8696 84.3581 78.3478C84.532 77.8261 84.532 77.3044 84.532 76.6087C84.532 75.8261 84.445 75.1304 84.2711 74.6087C84.0972 74.087 83.9233 73.7391 83.5754 73.4783C83.2276 73.2174 82.9667 73.1304 82.6189 73.1304C82.2711 73.1304 82.0102 73.2174 81.7494 73.3913C81.4885 73.5652 81.3146 73.7391 81.1407 74.087C80.9667 74.3478 80.8798 74.6956 80.7928 75.1304C80.7928 75.3913 80.7059 75.8261 80.7059 76.3478Z" fill="#231F20"/>
<path d="M88.7058 76.9565V78.8695C88.7058 79.1304 88.7058 79.3043 88.7058 79.4782C88.7058 79.5652 88.7928 79.6522 88.7928 79.7391C88.7928 79.8261 88.8797 79.8261 88.9667 79.913C89.0536 79.913 89.1406 80 89.3145 80V80.2609H86.9667V80C87.2275 79.913 87.3145 79.913 87.4015 79.8261C87.4884 79.7391 87.4884 79.6522 87.5754 79.4782C87.5754 79.3043 87.5754 79.1304 87.5754 78.8695V74.0869C87.5754 73.8261 87.5754 73.6522 87.5754 73.5652C87.5754 73.4783 87.4884 73.3913 87.4884 73.3043C87.4884 73.2174 87.4015 73.2174 87.3145 73.1304C87.2276 73.1304 87.1406 73.0435 86.9667 73.0435V72.7826H89.6623C90.5319 72.7826 91.1406 72.9565 91.5754 73.2174C92.0102 73.4782 92.1841 74 92.1841 74.6956C92.1841 75.2174 92.0101 75.6522 91.7493 76C91.4884 76.3478 91.0536 76.6087 90.5319 76.8695V76.9565C90.7928 77.0435 90.9667 77.2174 91.1406 77.3913C91.3145 77.5652 91.4884 77.8261 91.6623 78.1739L92.1841 79.0435C92.358 79.3043 92.4449 79.4783 92.5319 79.6522C92.6189 79.8261 92.7058 79.913 92.8797 80C92.9667 80.0869 93.1406 80.0869 93.3145 80.1739V80.4348H91.7493C91.5754 80.2609 91.4884 80 91.3145 79.8261C91.1406 79.6522 91.0536 79.3913 90.9667 79.1304L90.4449 78.1739C90.271 77.913 90.1841 77.6522 90.0971 77.5652C90.0102 77.3913 89.9232 77.3043 89.8362 77.3043C89.7493 77.2174 89.6623 77.2174 89.5754 77.2174C89.4884 77.2174 89.3145 77.2174 89.1406 77.2174H88.7058V76.9565ZM88.7058 73.1304V76.4348H89.3145C89.6623 76.4348 89.9232 76.4348 90.0971 76.3478C90.271 76.2609 90.4449 76.1739 90.6189 76.0869C90.7928 76 90.9667 75.7391 91.0536 75.5652C91.1406 75.3043 91.2275 75.0435 91.2275 74.6956C91.2275 74.3478 91.1406 74.0869 91.0536 73.8261C90.9667 73.5652 90.7928 73.3913 90.5319 73.3043C90.271 73.2174 89.9232 73.1304 89.5754 73.1304C89.1406 73.1304 88.8797 73.1304 88.7058 73.1304Z" fill="#231F20"/>
<path d="M95.6623 76.087H95.8362C96.0101 76.087 96.0971 76.087 96.184 76C96.271 75.913 96.4449 75.9131 96.5319 75.7391C96.7058 75.6522 96.8797 75.3913 97.2275 75.0435C97.5753 74.6087 97.8362 74.3478 97.9232 74.1739C98.0971 74 98.184 73.8261 98.271 73.6522C98.3579 73.5652 98.3579 73.4783 98.3579 73.3044C98.3579 73.1304 98.3579 73.0435 98.271 72.9565C98.184 72.8696 98.0971 72.8696 97.9232 72.8696V72.6087H100.358V72.8696C100.271 72.8696 100.097 72.9565 100.01 73.0435C99.9232 73.1304 99.7492 73.2174 99.6623 73.3044C99.5753 73.3913 99.4014 73.5652 99.1405 73.8261L97.3145 75.913L99.3145 78.8696C99.4884 79.2174 99.6623 79.3913 99.8362 79.4783C100.01 79.5652 100.097 79.6522 100.184 79.7391C100.271 79.8261 100.445 79.8261 100.532 79.8261V80.087H98.0971V79.8261C98.271 79.8261 98.3579 79.8261 98.3579 79.7391C98.4449 79.7391 98.4449 79.6522 98.4449 79.5652C98.4449 79.4783 98.4449 79.3913 98.3579 79.3043C98.3579 79.2174 98.271 79.1304 98.184 78.9565L96.8797 77.0435C96.7058 76.7826 96.6188 76.6957 96.5319 76.6087C96.4449 76.5217 96.358 76.5217 96.271 76.4348C96.184 76.3478 96.0971 76.3478 95.9232 76.3478H95.6623V78.6957C95.6623 78.9565 95.6623 79.1304 95.6623 79.2174C95.6623 79.3044 95.7493 79.3913 95.7493 79.4783C95.7493 79.5652 95.8362 79.5652 95.9232 79.6522C96.0101 79.7391 96.0971 79.7391 96.271 79.8261V80.087H94.0101V79.8261C94.271 79.7391 94.358 79.7391 94.4449 79.6522C94.5319 79.5652 94.5319 79.4783 94.6188 79.3043C94.6188 79.1304 94.6188 78.9565 94.6188 78.6957V73.913C94.6188 73.6522 94.6188 73.4783 94.6188 73.3913C94.6188 73.3043 94.5319 73.2174 94.5319 73.1304C94.5319 73.0435 94.4449 73.0435 94.358 72.9565C94.271 72.9565 94.184 72.8696 94.0101 72.8696V72.6087H96.3579V72.8696C96.184 72.8696 96.0971 72.9565 96.0101 72.9565C95.9232 72.9565 95.9232 73.0435 95.8362 73.1304C95.8362 73.2174 95.7493 73.3043 95.7493 73.3913C95.7493 73.4783 95.7493 73.7391 95.7493 73.913L95.6623 76.087Z" fill="#231F20"/>
<path d="M108.619 72.6956V74.3478H108.097C108.01 74.087 107.923 73.913 107.836 73.7391C107.749 73.5652 107.662 73.4782 107.575 73.3913C107.488 73.3043 107.401 73.2174 107.314 73.2174C107.228 73.2174 107.054 73.1304 106.88 73.1304H105.314V76.1739H106.445C106.619 76.1739 106.706 76.1739 106.793 76.087C106.88 76 106.967 75.913 107.054 75.8261C107.141 75.7391 107.141 75.4783 107.227 75.2174H107.749V77.5652H107.227C107.141 77.3044 107.141 77.1304 107.054 76.9565C106.967 76.8696 106.88 76.7826 106.793 76.6957C106.706 76.6087 106.619 76.6087 106.445 76.6087H105.314V78.7826C105.314 79.0435 105.314 79.2174 105.314 79.3044C105.314 79.3913 105.401 79.5652 105.401 79.6522C105.401 79.7392 105.575 79.8261 105.662 79.8261C105.749 79.8261 105.923 79.9131 106.01 79.9131V80.1739H103.575V79.9131C103.836 79.8261 103.923 79.8261 104.01 79.7391C104.097 79.6522 104.097 79.5652 104.184 79.3913C104.184 79.2174 104.184 79.0435 104.184 78.7826V74C104.184 73.7391 104.184 73.5652 104.184 73.4783C104.184 73.3913 104.097 73.3043 104.097 73.2174C104.097 73.1304 104.01 73.1304 103.923 73.0435C103.836 73.0435 103.749 72.9565 103.575 72.9565V72.6956H108.619Z" fill="#231F20"/>
<path d="M112.532 80.2609C112.097 80.2609 111.662 80.1739 111.314 80C110.967 79.8261 110.619 79.6522 110.358 79.3044C110.097 78.9565 109.923 78.6087 109.749 78.087C109.575 77.6522 109.575 77.0435 109.575 76.3478C109.575 75.5652 109.662 74.7826 109.923 74.2609C110.184 73.7391 110.532 73.2174 110.967 72.9565C111.401 72.6087 112.01 72.5217 112.619 72.5217C113.314 72.5217 113.836 72.6956 114.271 72.9565C114.706 73.2174 115.054 73.6522 115.314 74.2609C115.575 74.7826 115.662 75.4783 115.662 76.3478C115.662 77.2174 115.575 77.913 115.314 78.5217C115.054 79.1304 114.706 79.5652 114.184 79.8261C113.749 80.1739 113.141 80.2609 112.532 80.2609ZM110.706 76.3478C110.706 77.4783 110.88 78.3478 111.228 78.9565C111.575 79.5652 112.01 79.8261 112.706 79.8261C113.141 79.8261 113.488 79.7391 113.749 79.4783C114.01 79.2174 114.271 78.8696 114.358 78.3478C114.532 77.8261 114.532 77.3044 114.532 76.6087C114.532 75.8261 114.445 75.1304 114.271 74.6087C114.097 74.087 113.923 73.7391 113.575 73.4783C113.228 73.2174 112.967 73.1304 112.619 73.1304C112.271 73.1304 112.01 73.2174 111.749 73.3913C111.488 73.5652 111.314 73.7391 111.141 74.087C110.967 74.3478 110.88 74.6956 110.793 75.1304C110.793 75.3913 110.706 75.8261 110.706 76.3478Z" fill="#231F20"/>
<path d="M118.706 76.9565V78.8695C118.706 79.1304 118.706 79.3043 118.706 79.4782C118.706 79.5652 118.793 79.6522 118.793 79.7391C118.793 79.8261 118.88 79.8261 118.967 79.913C119.054 79.913 119.141 80 119.315 80V80.2609H116.967V80C117.228 79.913 117.315 79.913 117.401 79.8261C117.488 79.7391 117.488 79.6522 117.575 79.4782C117.575 79.3043 117.575 79.1304 117.575 78.8695V74.0869C117.575 73.8261 117.575 73.6522 117.575 73.5652C117.575 73.4783 117.488 73.3913 117.488 73.3043C117.488 73.2174 117.401 73.2174 117.315 73.1304C117.228 73.1304 117.141 73.0435 116.967 73.0435V72.7826H119.662C120.532 72.7826 121.141 72.9565 121.575 73.2174C122.01 73.5652 122.184 74 122.184 74.6956C122.184 75.2174 122.01 75.6522 121.749 76C121.488 76.3478 121.054 76.6087 120.532 76.8695V76.9565C120.793 77.0435 120.967 77.2174 121.141 77.3913C121.315 77.5652 121.488 77.8261 121.662 78.1739L122.184 79.0435C122.358 79.3043 122.445 79.4783 122.532 79.6522C122.619 79.8261 122.706 79.913 122.88 80C122.967 80.0869 123.141 80.0869 123.314 80.1739V80.4348H121.836C121.662 80.2609 121.575 80 121.401 79.8261C121.228 79.6522 121.141 79.3913 121.054 79.1304L120.532 78.1739C120.358 77.913 120.271 77.6522 120.184 77.5652C120.097 77.3913 120.01 77.3043 119.923 77.3043C119.836 77.2174 119.749 77.2174 119.662 77.2174C119.575 77.2174 119.401 77.2174 119.228 77.2174H118.706V76.9565ZM118.706 73.1304V76.4348H119.315C119.662 76.4348 119.923 76.4348 120.097 76.3478C120.271 76.2609 120.445 76.1739 120.619 76.0869C120.793 76 120.967 75.7391 121.054 75.5652C121.141 75.3043 121.228 75.0435 121.228 74.6956C121.228 74.3478 121.141 74.0869 121.054 73.8261C120.967 73.5652 120.793 73.3913 120.532 73.3043C120.271 73.2174 119.923 73.1304 119.575 73.1304C119.141 73.1304 118.88 73.1304 118.706 73.1304Z" fill="#231F20"/>
<path d="M126.532 80.1739V79.913C126.793 79.8261 126.88 79.8261 126.967 79.7391C127.054 79.6522 127.054 79.5652 127.141 79.3913C127.228 79.2174 127.141 79.0435 127.141 78.7826V74C127.141 73.7391 127.141 73.5652 127.141 73.4783C127.141 73.3913 127.054 73.3043 127.054 73.2174C127.054 73.1304 126.967 73.1304 126.88 73.0435C126.793 73.0435 126.706 72.9565 126.532 72.9565V72.6956H129.575C130.184 72.6956 130.619 72.7826 130.967 72.8696C131.315 72.9565 131.575 73.2174 131.749 73.3913C131.923 73.6522 132.01 73.913 132.01 74.3478C132.01 74.6956 131.923 74.9565 131.836 75.2174C131.749 75.4783 131.575 75.6522 131.315 75.8261C131.054 76 130.88 76.0869 130.532 76.2609V76.3478C131.054 76.5217 131.402 76.6957 131.662 77.0435C131.923 77.3913 132.01 77.7391 132.01 78.1739C132.01 78.6956 131.923 79.0435 131.662 79.3913C131.402 79.7391 131.141 79.913 130.706 80.087C130.271 80.2609 129.836 80.2609 129.228 80.2609H126.532V80.1739ZM129.141 76C129.662 76 130.097 75.8261 130.445 75.5652C130.706 75.3043 130.88 74.8696 130.88 74.3478C130.88 74.0869 130.88 73.913 130.793 73.7391C130.706 73.5652 130.619 73.4783 130.445 73.3043C130.271 73.2174 130.097 73.1304 129.923 73.1304C129.749 73.1304 129.489 73.0435 129.315 73.0435C129.141 73.0435 128.967 73.0435 128.793 73.0435C128.532 73.0435 128.358 73.0435 128.271 73.0435V75.913H129.141V76ZM128.184 79.6522C128.445 79.6522 128.793 79.6522 129.054 79.6522C129.575 79.6522 129.923 79.5652 130.184 79.4783C130.445 79.3913 130.619 79.2174 130.793 78.9565C130.88 78.6957 130.967 78.4348 130.967 78.087C130.967 77.7391 130.88 77.4783 130.793 77.2174C130.706 76.9565 130.445 76.7826 130.184 76.6956C129.923 76.6087 129.575 76.5217 129.054 76.5217H128.184V79.6522Z" fill="#231F20"/>
<path d="M135.054 78.7826C135.054 79.0435 135.054 79.2174 135.054 79.3044C135.054 79.3913 135.141 79.4783 135.141 79.5652C135.141 79.6522 135.228 79.6522 135.315 79.7391C135.402 79.8261 135.488 79.8261 135.662 79.9131V80.1739H133.315V79.9131C133.575 79.8261 133.662 79.8261 133.749 79.7391C133.836 79.6522 133.836 79.5652 133.923 79.3913C134.01 79.2174 133.923 79.0435 133.923 78.7826V74C133.923 73.7391 133.923 73.5652 133.923 73.4783C133.923 73.3913 133.836 73.3043 133.836 73.2174C133.836 73.1304 133.749 73.1304 133.662 73.0435C133.575 73.0435 133.488 72.9565 133.315 72.9565V72.6956H135.662V72.9565C135.488 72.9565 135.402 73.0435 135.315 73.0435C135.228 73.0435 135.228 73.1304 135.141 73.2174C135.141 73.3043 135.054 73.3913 135.054 73.4783C135.054 73.5652 135.054 73.8261 135.054 74V78.7826Z" fill="#231F20"/>
<path d="M140.01 80.2609C139.575 80.2609 139.141 80.1739 138.793 80C138.445 79.8261 138.097 79.6522 137.836 79.3044C137.575 78.9565 137.401 78.6087 137.227 78.087C137.054 77.5652 137.054 77.0435 137.054 76.3478C137.054 75.5652 137.141 74.7826 137.401 74.2609C137.662 73.6522 138.01 73.2174 138.445 72.9565C138.88 72.6956 139.488 72.5217 140.097 72.5217C140.793 72.5217 141.314 72.6956 141.749 72.9565C142.184 73.2174 142.532 73.6522 142.793 74.2609C143.054 74.7826 143.141 75.4783 143.141 76.3478C143.141 77.2174 143.054 77.913 142.793 78.5217C142.532 79.1304 142.184 79.5652 141.662 79.8261C141.228 80.1739 140.619 80.2609 140.01 80.2609ZM138.184 76.3478C138.184 77.4783 138.358 78.3478 138.706 78.9565C139.054 79.5652 139.488 79.8261 140.184 79.8261C140.619 79.8261 140.967 79.7391 141.228 79.4783C141.488 79.2174 141.749 78.8696 141.836 78.3478C142.01 77.8261 142.01 77.3044 142.01 76.6087C142.01 75.8261 141.923 75.1304 141.749 74.6087C141.575 74.087 141.401 73.7391 141.054 73.4783C140.793 73.2174 140.445 73.1304 140.097 73.1304C139.749 73.1304 139.488 73.2174 139.228 73.3913C138.967 73.5652 138.793 73.7391 138.619 74.087C138.445 74.4348 138.358 74.6956 138.271 75.1304C138.271 75.3913 138.184 75.8261 138.184 76.3478Z" fill="#231F20"/>
<path d="M146.184 78.7826C146.184 79.0435 146.184 79.2174 146.184 79.3044C146.184 79.3913 146.271 79.4783 146.271 79.5652C146.271 79.6522 146.358 79.6522 146.445 79.7391C146.532 79.8261 146.619 79.8261 146.793 79.9131V80.1739H144.445V79.9131C144.706 79.8261 144.793 79.8261 144.88 79.7391C144.967 79.6522 144.967 79.5652 145.054 79.3913C145.141 79.2174 145.054 79.0435 145.054 78.7826V74C145.054 73.7391 145.054 73.5652 145.054 73.4783C145.054 73.3913 144.967 73.3043 144.967 73.2174C144.967 73.1304 144.88 73.1304 144.793 73.0435C144.706 73.0435 144.619 72.9565 144.445 72.9565V72.6956H146.793V72.9565C146.619 72.9565 146.532 73.0435 146.445 73.0435C146.358 73.0435 146.358 73.1304 146.271 73.2174C146.271 73.3043 146.184 73.3913 146.184 73.4783C146.184 73.5652 146.184 73.8261 146.184 74V78.7826Z" fill="#231F20"/>
<path d="M152.532 77.2174C152.706 77.4783 152.793 77.6522 152.88 77.8261C152.967 78 153.054 78.1739 153.141 78.3478H153.228C153.228 78.0869 153.228 77.6522 153.141 77.0435C153.141 76.3478 153.141 75.7391 153.141 75.2174V74.0869C153.141 73.8261 153.141 73.6522 153.141 73.5652C153.141 73.4783 153.141 73.3913 153.054 73.3043C153.054 73.2174 152.967 73.2174 152.88 73.1304C152.793 73.1304 152.706 73.0435 152.532 73.0435V72.7826H154.532V73.0435C154.358 73.1304 154.271 73.1304 154.184 73.1304C154.097 73.1304 154.097 73.2174 154.01 73.3043C153.923 73.3913 153.923 73.4783 153.923 73.5652C153.923 73.6522 153.923 73.913 153.923 74.1739V80.3478H153.228L150.184 75.2174C150.01 74.8696 149.836 74.6956 149.749 74.5217C149.662 74.3478 149.575 74.2609 149.488 74.0869H149.402C149.402 74.3478 149.488 74.8696 149.488 75.6522C149.488 76.4348 149.488 77.1304 149.488 77.8261V78.9565C149.488 79.2174 149.488 79.3913 149.488 79.4782C149.488 79.5652 149.575 79.6522 149.575 79.7391C149.575 79.8261 149.662 79.8261 149.749 79.913C149.836 80 149.923 80 150.097 80.0869V80.3478H148.097V80.0869C148.358 80 148.445 80 148.532 79.913C148.619 79.8261 148.619 79.7391 148.706 79.5652C148.793 79.3913 148.706 79.2174 148.706 78.9565V74.1739C148.706 73.913 148.706 73.7391 148.706 73.6522C148.706 73.5652 148.619 73.4782 148.619 73.3913C148.619 73.3043 148.532 73.3043 148.445 73.2174C148.358 73.2174 148.271 73.1304 148.097 73.1304V72.8696H149.836L152.532 77.2174Z" fill="#231F20"/>
<path d="M160.88 72.6956V74.3478H160.358C160.271 74.087 160.184 73.913 160.097 73.7391C160.01 73.5652 159.923 73.4782 159.836 73.3913C159.749 73.3043 159.662 73.2174 159.575 73.2174C159.488 73.2174 159.314 73.1304 159.141 73.1304H157.488V76.1739H158.619C158.793 76.1739 158.88 76.1739 158.967 76.087C159.054 76 159.141 75.913 159.228 75.8261C159.314 75.7391 159.314 75.4783 159.401 75.2174H159.923V77.5652H159.401C159.314 77.3044 159.314 77.1304 159.228 76.9565C159.141 76.8696 159.054 76.7826 158.967 76.6957C158.88 76.6087 158.793 76.6087 158.619 76.6087H157.488V78.7826C157.488 79.0435 157.488 79.2174 157.488 79.3044C157.488 79.3913 157.575 79.5652 157.575 79.6522C157.662 79.7392 157.749 79.8261 157.836 79.8261C157.923 79.8261 158.097 79.9131 158.184 79.9131V80.1739H155.749V79.9131C156.01 79.8261 156.097 79.8261 156.184 79.7391C156.271 79.6522 156.271 79.5652 156.358 79.3913C156.445 79.2174 156.358 79.0435 156.358 78.7826V74C156.358 73.7391 156.358 73.5652 156.358 73.4783C156.358 73.3913 156.271 73.3043 156.271 73.2174C156.271 73.1304 156.184 73.1304 156.097 73.0435C156.01 73.0435 155.923 72.9565 155.749 72.9565V72.6956H160.88Z" fill="#231F20"/>
<path d="M164.706 80.2609C164.271 80.2609 163.836 80.1739 163.488 80C163.141 79.8261 162.793 79.6522 162.532 79.3044C162.271 78.9565 162.097 78.6087 161.923 78.087C161.749 77.5652 161.749 77.0435 161.749 76.3478C161.749 75.5652 161.836 74.7826 162.097 74.2609C162.358 73.6522 162.706 73.2174 163.141 72.9565C163.575 72.6956 164.184 72.5217 164.793 72.5217C165.488 72.5217 166.01 72.6956 166.445 72.9565C166.88 73.2174 167.228 73.6522 167.488 74.2609C167.749 74.7826 167.836 75.4783 167.836 76.3478C167.836 77.2174 167.749 77.913 167.488 78.5217C167.228 79.1304 166.88 79.5652 166.358 79.8261C165.923 80.1739 165.401 80.2609 164.706 80.2609ZM162.967 76.3478C162.967 77.4783 163.141 78.3478 163.488 78.9565C163.836 79.5652 164.271 79.8261 164.967 79.8261C165.401 79.8261 165.749 79.7391 166.01 79.4783C166.271 79.2174 166.532 78.8696 166.619 78.3478C166.793 77.8261 166.793 77.3044 166.793 76.6087C166.793 75.8261 166.706 75.1304 166.532 74.6087C166.358 74.087 166.184 73.7391 165.836 73.4783C165.575 73.2174 165.228 73.1304 164.88 73.1304C164.532 73.1304 164.271 73.2174 164.01 73.3913C163.749 73.5652 163.575 73.7391 163.401 74.087C163.228 74.4348 163.141 74.6956 163.054 75.1304C162.967 75.3913 162.967 75.8261 162.967 76.3478Z" fill="#231F20"/>
<path d="M170.88 76.9565V78.8695C170.88 79.1304 170.88 79.3043 170.88 79.4782C170.88 79.6522 170.967 79.6522 170.967 79.7391C170.967 79.8261 171.054 79.8261 171.141 79.913C171.228 79.913 171.315 80 171.488 80V80.2609H169.141V80C169.401 79.913 169.488 79.913 169.575 79.8261C169.662 79.7391 169.662 79.6522 169.749 79.4782C169.836 79.3043 169.749 79.1304 169.749 78.8695V74.0869C169.749 73.8261 169.749 73.6522 169.749 73.5652C169.749 73.4783 169.662 73.3913 169.662 73.3043C169.662 73.2174 169.575 73.2174 169.488 73.1304C169.402 73.1304 169.315 73.0435 169.141 73.0435V72.7826H171.836C172.706 72.7826 173.315 72.9565 173.749 73.2174C174.184 73.5652 174.358 74 174.358 74.6956C174.358 75.2174 174.184 75.6522 173.923 76C173.662 76.3478 173.228 76.6087 172.706 76.8695V76.9565C172.967 77.0435 173.141 77.2174 173.315 77.3913C173.488 77.5652 173.662 77.8261 173.836 78.1739L174.358 79.0435C174.532 79.3043 174.619 79.4783 174.706 79.6522C174.793 79.8261 174.88 79.913 175.054 80C175.141 80.0869 175.315 80.0869 175.488 80.1739V80.4348H174.01C173.836 80.2609 173.749 80 173.575 79.8261C173.488 79.5652 173.315 79.3913 173.228 79.1304L172.706 78.1739C172.532 77.913 172.445 77.6522 172.358 77.5652C172.271 77.3913 172.184 77.3043 172.097 77.3043C172.01 77.3043 171.923 77.2174 171.836 77.2174C171.749 77.2174 171.575 77.2174 171.402 77.2174H170.88V76.9565ZM170.88 73.1304V76.4348H171.488C171.836 76.4348 172.097 76.4348 172.271 76.3478C172.445 76.2609 172.619 76.1739 172.793 76.0869C172.967 76 173.141 75.7391 173.228 75.5652C173.315 75.3913 173.402 75.0435 173.402 74.6956C173.402 74.3478 173.315 74.0869 173.228 73.8261C173.141 73.5652 172.967 73.3913 172.706 73.3043C172.445 73.2174 172.097 73.1304 171.749 73.1304C171.315 73.1304 171.054 73.1304 170.88 73.1304Z" fill="#231F20"/>
<path d="M184.097 72.9565C183.923 72.9565 183.836 73.0435 183.749 73.0435C183.662 73.0435 183.662 73.1304 183.575 73.2174C183.575 73.3043 183.488 73.3913 183.488 73.4783C183.488 73.5652 183.488 73.8261 183.488 74V78.7826C183.488 79.0435 183.488 79.2174 183.488 79.3043C183.488 79.3913 183.575 79.4783 183.575 79.5652C183.575 79.6522 183.662 79.6522 183.749 79.7391C183.836 79.8261 183.923 79.8261 184.097 79.913V80.1739H181.836V79.913C182.01 79.8261 182.184 79.8261 182.271 79.7391C182.358 79.6522 182.445 79.5652 182.445 79.4783C182.445 79.3913 182.532 79.1304 182.532 78.8696V76.7826C182.532 76.2609 182.532 75.6522 182.532 75.1304C182.532 74.5217 182.532 74.1739 182.619 74H182.532L180.358 79.4783H179.749L177.749 73.913H177.488C177.488 74.1739 177.488 74.5217 177.575 75.1304C177.575 75.7391 177.575 76.3478 177.575 76.9565V78.9565C177.575 79.2174 177.575 79.3913 177.575 79.4783C177.575 79.5652 177.662 79.6522 177.662 79.7391C177.662 79.8261 177.749 79.8261 177.836 79.913C177.923 80 178.01 80 178.184 80.087V80.3478H176.184V80.087C176.445 80 176.532 80 176.619 79.913C176.706 79.8261 176.706 79.7391 176.793 79.5652C176.88 79.3913 176.793 79.2174 176.793 78.9565V74.1739C176.793 73.913 176.793 73.7391 176.793 73.6522C176.793 73.5652 176.706 73.4783 176.706 73.3913C176.706 73.3043 176.619 73.3043 176.532 73.2174C176.445 73.2174 176.358 73.1304 176.184 73.1304V72.8696H178.184L180.097 78.2609L182.271 72.8696H184.097V72.9565Z" fill="#231F20"/>
<path d="M189.141 80.1739V79.913C189.315 79.913 189.489 79.8261 189.575 79.8261C189.662 79.8261 189.749 79.7391 189.749 79.6522C189.749 79.5652 189.836 79.4783 189.836 79.3044C189.836 79.2174 189.836 79.0435 189.749 78.8696C189.749 78.6957 189.662 78.5218 189.662 78.3478L189.489 77.6522H186.88L186.706 78.1739C186.619 78.4348 186.532 78.6957 186.532 78.7826C186.532 78.9565 186.445 79.0435 186.445 79.1304C186.445 79.3913 186.532 79.4783 186.619 79.6522C186.706 79.8261 186.88 79.8261 187.141 79.8261V80.087H184.793V79.8261C184.967 79.8261 185.141 79.6522 185.315 79.4783C185.489 79.3043 185.575 78.9565 185.749 78.6087L188.01 72.5217H188.88L190.793 78.6957C190.88 78.9565 190.967 79.2174 191.054 79.3913C191.141 79.5652 191.228 79.6522 191.315 79.7391C191.402 79.8261 191.575 79.913 191.749 79.913V80.1739H189.141ZM187.054 77.2174H189.402L188.358 73.6522L187.054 77.2174Z" fill="#231F20"/>
<path d="M191.488 72.6956H197.488V74.6087H196.967C196.88 74.2609 196.793 74 196.706 73.8261C196.619 73.6522 196.532 73.4782 196.445 73.3913C196.358 73.3043 196.271 73.2174 196.184 73.2174C196.097 73.2174 195.923 73.1304 195.749 73.1304H195.054V78.7826C195.054 78.9565 195.054 79.1304 195.054 79.3044C195.054 79.3913 195.141 79.5652 195.141 79.6522C195.228 79.7392 195.228 79.8261 195.315 79.8261C195.402 79.8261 195.488 79.9131 195.749 79.9131V80.1739H193.228V79.9131C193.315 79.9131 193.401 79.8261 193.488 79.8261C193.575 79.8261 193.662 79.7391 193.662 79.7391C193.662 79.7391 193.749 79.6522 193.836 79.5652C193.923 79.4783 193.923 79.3913 193.923 79.3044C193.923 79.2174 193.923 79.0435 193.923 78.7826V73.1304H193.228C193.054 73.1304 192.88 73.1304 192.793 73.2174C192.706 73.3043 192.619 73.3043 192.445 73.3913C192.358 73.4782 192.271 73.6522 192.184 73.8261C192.097 74 192.01 74.2609 191.923 74.5217H191.401V72.6956H191.488Z" fill="#231F20"/>
<path d="M200.184 78.7826C200.184 79.0435 200.184 79.2174 200.184 79.3044C200.184 79.3913 200.271 79.4783 200.271 79.5652C200.271 79.6522 200.358 79.6522 200.445 79.7391C200.532 79.8261 200.619 79.8261 200.793 79.9131V80.1739H198.445V79.9131C198.706 79.8261 198.793 79.8261 198.88 79.7391C198.967 79.6522 198.967 79.5652 199.054 79.3913C199.141 79.2174 199.054 79.0435 199.054 78.7826V74C199.054 73.7391 199.054 73.5652 199.054 73.4783C199.054 73.3913 198.967 73.3043 198.967 73.2174C198.967 73.1304 198.88 73.1304 198.793 73.0435C198.706 73.0435 198.619 72.9565 198.445 72.9565V72.6956H200.793V72.9565C200.619 72.9565 200.532 73.0435 200.445 73.0435C200.358 73.0435 200.358 73.1304 200.271 73.2174C200.271 73.3043 200.184 73.3913 200.184 73.4783C200.184 73.5652 200.184 73.8261 200.184 74V78.7826Z" fill="#231F20"/>
<path d="M207.228 72.7826V74.3478H206.706C206.619 74 206.532 73.7391 206.358 73.5652C206.184 73.3913 206.097 73.2174 205.923 73.1304C205.749 73.0435 205.488 73.0435 205.314 73.0435C204.967 73.0435 204.619 73.1304 204.271 73.3913C203.923 73.6522 203.749 74 203.575 74.5217C203.401 75.0435 203.314 75.6522 203.314 76.3478C203.314 77.0435 203.401 77.6522 203.488 78.1739C203.575 78.6956 203.836 79.0435 204.097 79.3043C204.358 79.5652 204.706 79.6522 205.141 79.6522C205.401 79.6522 205.662 79.6522 205.923 79.5652C206.184 79.4783 206.271 79.3043 206.445 79.1304C206.619 78.9565 206.706 78.6956 206.793 78.2609H207.314V79.8261C206.967 79.913 206.619 80 206.271 80C205.923 80 205.488 80.087 205.054 80.087C204.097 80.087 203.401 79.7391 202.967 79.1304C202.532 78.5217 202.271 77.5652 202.271 76.2609C202.271 75.4782 202.358 74.7826 202.619 74.1739C202.88 73.5652 203.228 73.1304 203.749 72.7826C204.271 72.4348 204.793 72.2609 205.488 72.2609C205.836 72.2609 206.097 72.2609 206.445 72.3478C206.793 72.4348 206.88 72.6956 207.228 72.7826Z" fill="#231F20"/>
<path d="M208.967 78.4348C209.054 78.7826 209.141 79.0435 209.227 79.2174C209.314 79.3913 209.488 79.5652 209.749 79.6522C210.01 79.7391 210.184 79.8261 210.532 79.8261C210.967 79.8261 211.314 79.7391 211.488 79.4783C211.749 79.2174 211.836 78.9565 211.836 78.5217C211.836 78.2609 211.749 78 211.662 77.8261C211.575 77.6522 211.401 77.4783 211.227 77.3043C211.054 77.1304 210.706 76.9565 210.271 76.6957C209.836 76.5217 209.488 76.2609 209.227 76.087C208.967 75.913 208.793 75.6522 208.706 75.3913C208.619 75.1304 208.532 74.8696 208.532 74.6087C208.532 74.1739 208.619 73.8261 208.793 73.5652C208.967 73.3044 209.227 73.0435 209.662 72.8696C210.097 72.6957 210.445 72.6087 210.967 72.6087C211.227 72.6087 211.488 72.6087 211.749 72.6957C212.01 72.6957 212.358 72.7826 212.793 72.8696V74.3478H212.271C212.184 74 212.097 73.7391 211.923 73.5652C211.749 73.3913 211.662 73.2174 211.488 73.2174C211.314 73.1304 211.054 73.1304 210.793 73.1304C210.532 73.1304 210.358 73.2174 210.184 73.3044C210.01 73.3913 209.836 73.5652 209.749 73.7391C209.662 73.9131 209.575 74.1739 209.575 74.3478C209.575 74.6087 209.662 74.8696 209.749 75.0435C209.836 75.2174 210.01 75.3913 210.184 75.5652C210.358 75.7391 210.706 75.913 211.054 76.087C211.488 76.3478 211.923 76.5217 212.184 76.7826C212.445 76.9565 212.619 77.2174 212.793 77.4783C212.967 77.7391 212.967 78 212.967 78.3478C212.967 78.6957 212.88 79.0435 212.793 79.3043C212.706 79.5652 212.532 79.8261 212.271 79.913C212.097 80.087 211.836 80.1739 211.488 80.2609C211.141 80.3478 210.88 80.3478 210.532 80.3478C209.923 80.3478 209.314 80.2609 208.532 80.087V78.6087H208.967V78.4348Z" fill="#231F20"/>
<path d="M218.271 78.7826C218.271 79.0435 218.271 79.2174 218.271 79.3044C218.271 79.3913 218.358 79.4783 218.358 79.5652C218.358 79.6522 218.445 79.6522 218.532 79.7391C218.619 79.8261 218.706 79.8261 218.88 79.9131V80.1739H216.532V79.9131C216.793 79.8261 216.88 79.8261 216.967 79.7391C217.054 79.6522 217.054 79.5652 217.141 79.3913C217.228 79.2174 217.141 79.0435 217.141 78.7826V74C217.141 73.7391 217.141 73.5652 217.141 73.4783C217.141 73.3913 217.054 73.3043 217.054 73.2174C217.054 73.1304 216.967 73.1304 216.88 73.0435C216.793 73.0435 216.706 72.9565 216.532 72.9565V72.6956H218.88V72.9565C218.706 72.9565 218.619 73.0435 218.532 73.0435C218.445 73.0435 218.445 73.1304 218.358 73.2174C218.358 73.3043 218.271 73.3913 218.271 73.4783C218.271 73.5652 218.271 73.8261 218.271 74V78.7826Z" fill="#231F20"/>
<path d="M224.619 77.2174C224.793 77.4783 224.88 77.6522 224.967 77.8261C225.054 78 225.141 78.1739 225.228 78.3478H225.315C225.315 78.0869 225.315 77.6522 225.228 77.0435C225.228 76.3478 225.228 75.7391 225.228 75.2174V74.0869C225.228 73.8261 225.228 73.6522 225.228 73.5652C225.228 73.4783 225.228 73.3913 225.141 73.3043C225.141 73.2174 225.054 73.2174 224.967 73.1304C224.88 73.1304 224.793 73.0435 224.619 73.0435V72.7826H226.619V73.0435C226.445 73.1304 226.358 73.1304 226.271 73.1304C226.184 73.1304 226.184 73.2174 226.097 73.3043C226.01 73.3913 226.01 73.4783 226.01 73.5652C226.01 73.6522 226.01 73.913 226.01 74.1739V80.3478H225.315L222.271 75.2174C222.097 74.8696 221.923 74.6956 221.836 74.5217C221.749 74.3478 221.662 74.2609 221.575 74.0869H221.488C221.488 74.3478 221.575 74.8696 221.575 75.6522C221.575 76.4348 221.575 77.1304 221.575 77.8261V78.9565C221.575 79.2174 221.575 79.3913 221.575 79.4782C221.575 79.5652 221.662 79.6522 221.662 79.7391C221.662 79.8261 221.749 79.8261 221.836 79.913C221.923 80 222.01 80 222.184 80.0869V80.3478H220.184V80.0869C220.445 80 220.532 80 220.619 79.913C220.706 79.8261 220.706 79.7391 220.793 79.5652C220.88 79.3913 220.793 79.2174 220.793 78.9565V74.1739C220.793 73.913 220.793 73.7391 220.793 73.6522C220.793 73.5652 220.706 73.4782 220.706 73.3913C220.706 73.3043 220.619 73.3043 220.532 73.2174C220.445 73.2174 220.358 73.1304 220.184 73.1304V72.8696H221.923L224.619 77.2174Z" fill="#231F20"/>
<path d="M232.967 72.6956V74.3478H232.445C232.358 74.087 232.271 73.913 232.184 73.7391C232.097 73.5652 232.01 73.4782 231.923 73.3913C231.836 73.3043 231.749 73.2174 231.662 73.2174C231.575 73.2174 231.401 73.1304 231.227 73.1304H229.575V76.1739H230.706C230.88 76.1739 230.967 76.1739 231.054 76.087C231.141 76 231.227 75.913 231.314 75.8261C231.401 75.7391 231.401 75.4783 231.488 75.2174H232.01V77.5652H231.488C231.401 77.3044 231.401 77.1304 231.314 76.9565C231.227 76.8696 231.141 76.7826 231.054 76.6957C230.967 76.6087 230.88 76.6087 230.706 76.6087H229.575V78.7826C229.575 79.0435 229.575 79.2174 229.575 79.3044C229.575 79.3913 229.662 79.5652 229.662 79.6522C229.749 79.7392 229.836 79.8261 229.923 79.8261C230.01 79.8261 230.184 79.9131 230.271 79.9131V80.1739H227.923V79.9131C228.184 79.8261 228.271 79.8261 228.358 79.7391C228.445 79.6522 228.445 79.5652 228.532 79.3913C228.619 79.2174 228.532 79.0435 228.532 78.7826V74C228.532 73.7391 228.532 73.5652 228.532 73.4783C228.532 73.3913 228.445 73.3043 228.445 73.2174C228.445 73.1304 228.358 73.1304 228.271 73.0435C228.184 73.0435 228.097 72.9565 227.923 72.9565V72.6956H232.967Z" fill="#231F20"/>
<path d="M235.662 76.9565V78.8695C235.662 79.1304 235.662 79.3043 235.662 79.4782C235.662 79.6522 235.749 79.6522 235.749 79.7391C235.749 79.8261 235.836 79.8261 235.923 79.913C236.01 79.913 236.097 80 236.271 80V80.2609H234.01V80C234.271 79.913 234.358 79.913 234.445 79.8261C234.532 79.7391 234.532 79.6522 234.619 79.4782C234.706 79.3043 234.619 79.1304 234.619 78.8695V74.0869C234.619 73.8261 234.619 73.6522 234.619 73.5652C234.619 73.4783 234.532 73.3913 234.532 73.3043C234.532 73.2174 234.445 73.2174 234.358 73.1304C234.271 73.1304 234.184 73.0435 234.01 73.0435V72.7826H236.706C237.575 72.7826 238.184 72.9565 238.619 73.2174C239.054 73.4782 239.228 74 239.228 74.6956C239.228 75.2174 239.054 75.6522 238.793 76C238.532 76.3478 238.097 76.6087 237.575 76.8695V76.9565C237.836 77.0435 238.01 77.2174 238.184 77.3913C238.358 77.5652 238.532 77.8261 238.706 78.1739L239.228 79.0435C239.401 79.3043 239.488 79.4783 239.575 79.6522C239.662 79.8261 239.749 79.913 239.923 80C240.01 80.0869 240.184 80.0869 240.358 80.1739V80.4348H238.793C238.619 80.2609 238.532 80 238.358 79.8261C238.271 79.5652 238.097 79.3913 238.01 79.1304L237.488 78.1739C237.314 77.913 237.228 77.6522 237.141 77.5652C237.054 77.3913 236.967 77.3043 236.88 77.3043C236.793 77.3043 236.706 77.2174 236.619 77.2174C236.532 77.2174 236.358 77.2174 236.184 77.2174H235.662V76.9565ZM235.662 73.1304V76.4348H236.271C236.619 76.4348 236.88 76.4348 237.054 76.3478C237.228 76.2609 237.401 76.1739 237.575 76.0869C237.749 76 237.923 75.7391 238.01 75.5652C238.097 75.3913 238.184 75.0435 238.184 74.6956C238.184 74.3478 238.097 74.0869 238.01 73.8261C237.923 73.5652 237.749 73.3913 237.488 73.3043C237.228 73.2174 236.88 73.1304 236.532 73.1304C236.184 73.1304 235.836 73.1304 235.662 73.1304Z" fill="#231F20"/>
<path d="M244.706 80.1739V79.913C244.88 79.913 245.054 79.8261 245.141 79.8261C245.228 79.8261 245.315 79.7391 245.315 79.6522C245.315 79.5652 245.402 79.4783 245.402 79.3044C245.402 79.2174 245.402 79.0435 245.315 78.8696C245.315 78.6957 245.228 78.5218 245.228 78.3478L245.054 77.6522H242.445L242.271 78.1739C242.184 78.4348 242.097 78.6957 242.097 78.7826C242.097 78.9565 242.01 79.0435 242.01 79.1304C242.01 79.3913 242.097 79.4783 242.184 79.6522C242.271 79.8261 242.445 79.8261 242.706 79.8261V80.087H240.358V79.8261C240.532 79.8261 240.706 79.6522 240.88 79.4783C241.054 79.3043 241.141 78.9565 241.315 78.6087L243.575 72.5217H244.445L246.358 78.6957C246.445 78.9565 246.532 79.2174 246.619 79.3913C246.706 79.5652 246.793 79.6522 246.88 79.7391C246.967 79.8261 247.141 79.913 247.315 79.913V80.1739H244.706ZM242.619 77.2174H244.967L243.923 73.6522L242.619 77.2174Z" fill="#231F20"/>
<path d="M248.358 78.4348C248.445 78.7826 248.532 79.0435 248.619 79.2174C248.706 79.3913 248.88 79.5652 249.141 79.6522C249.401 79.7391 249.575 79.8261 249.923 79.8261C250.358 79.8261 250.706 79.7391 250.88 79.4783C251.141 79.2174 251.228 78.9565 251.228 78.5217C251.228 78.2609 251.141 78 251.054 77.8261C250.967 77.6522 250.793 77.4783 250.619 77.3043C250.445 77.1304 250.097 76.9565 249.662 76.6957C249.228 76.5217 248.88 76.2609 248.619 76.087C248.358 75.913 248.184 75.6522 248.097 75.3913C248.01 75.1304 247.923 74.8696 247.923 74.6087C247.923 74.1739 248.01 73.8261 248.184 73.5652C248.358 73.3044 248.619 73.0435 249.054 72.8696C249.488 72.6957 249.836 72.6087 250.358 72.6087C250.619 72.6087 250.88 72.6087 251.141 72.6957C251.401 72.6957 251.749 72.7826 252.184 72.8696V74.3478H251.662C251.575 74 251.488 73.7391 251.315 73.5652C251.141 73.3913 251.054 73.2174 250.88 73.2174C250.706 73.1304 250.445 73.1304 250.184 73.1304C249.923 73.1304 249.749 73.2174 249.575 73.3044C249.401 73.3913 249.228 73.5652 249.141 73.7391C249.054 73.9131 248.967 74.1739 248.967 74.3478C248.967 74.6087 249.054 74.8696 249.141 75.0435C249.228 75.2174 249.401 75.3913 249.575 75.5652C249.749 75.7391 250.097 75.913 250.445 76.087C250.88 76.3478 251.315 76.5217 251.575 76.7826C251.836 76.9565 252.01 77.2174 252.184 77.4783C252.358 77.7391 252.358 78 252.358 78.3478C252.358 78.6957 252.271 79.0435 252.184 79.3043C252.097 79.5652 251.923 79.8261 251.662 79.913C251.488 80.087 251.228 80.1739 250.88 80.2609C250.532 80.3478 250.271 80.3478 249.923 80.3478C249.315 80.3478 248.706 80.2609 247.923 80.087V78.6087H248.358V78.4348Z" fill="#231F20"/>
<path d="M253.054 72.6956H259.054V74.6087H258.532C258.445 74.2609 258.358 74 258.271 73.8261C258.184 73.6522 258.097 73.4782 258.01 73.3913C257.923 73.3043 257.836 73.2174 257.749 73.2174C257.662 73.2174 257.488 73.1304 257.315 73.1304H256.619V78.7826C256.619 78.9565 256.619 79.1304 256.619 79.3044C256.619 79.3913 256.706 79.5652 256.706 79.6522C256.793 79.7392 256.793 79.8261 256.88 79.8261C256.967 79.8261 257.054 79.9131 257.315 79.9131V80.1739H254.793V79.9131C254.88 79.9131 254.967 79.8261 255.054 79.8261C255.141 79.8261 255.228 79.7391 255.228 79.7391C255.228 79.7391 255.315 79.6522 255.401 79.5652C255.488 79.4783 255.488 79.3913 255.488 79.3044C255.488 79.2174 255.488 79.0435 255.488 78.7826V73.1304H254.793C254.619 73.1304 254.445 73.1304 254.358 73.2174C254.271 73.3043 254.184 73.3043 254.01 73.3913C253.923 73.4782 253.836 73.6522 253.749 73.8261C253.662 74 253.575 74.2609 253.488 74.5217H252.967V72.6956H253.054Z" fill="#231F20"/>
<path d="M261.749 76.9565V78.8695C261.749 79.1304 261.749 79.3043 261.749 79.4782C261.749 79.6522 261.836 79.6522 261.836 79.7391C261.836 79.8261 261.923 79.8261 262.01 79.913C262.097 79.913 262.184 80 262.358 80V80.2609H260.097V80C260.358 79.913 260.445 79.913 260.532 79.8261C260.619 79.7391 260.619 79.6522 260.706 79.4782C260.793 79.3043 260.706 79.1304 260.706 78.8695V74.0869C260.706 73.8261 260.706 73.6522 260.706 73.5652C260.706 73.4783 260.619 73.3913 260.619 73.3043C260.619 73.2174 260.532 73.2174 260.445 73.1304C260.358 73.1304 260.271 73.0435 260.097 73.0435V72.7826H262.793C263.662 72.7826 264.271 72.9565 264.706 73.2174C265.141 73.4782 265.315 74 265.315 74.6956C265.315 75.2174 265.141 75.6522 264.88 76C264.619 76.3478 264.184 76.6087 263.662 76.8695V76.9565C263.923 77.0435 264.097 77.2174 264.271 77.3913C264.445 77.5652 264.619 77.8261 264.793 78.1739L265.315 79.0435C265.488 79.3043 265.575 79.4783 265.662 79.6522C265.749 79.8261 265.836 79.913 266.01 80C266.097 80.0869 266.271 80.0869 266.445 80.1739V80.4348H264.88C264.706 80.2609 264.619 80 264.445 79.8261C264.358 79.5652 264.184 79.3913 264.097 79.1304L263.575 78.1739C263.401 77.913 263.315 77.6522 263.228 77.5652C263.141 77.3913 263.054 77.3043 262.967 77.3043C262.88 77.3043 262.793 77.2174 262.706 77.2174C262.619 77.2174 262.445 77.2174 262.271 77.2174H261.749V76.9565ZM261.749 73.1304V76.4348H262.358C262.706 76.4348 262.967 76.4348 263.141 76.3478C263.315 76.2609 263.488 76.1739 263.662 76.0869C263.836 76 264.01 75.7391 264.097 75.5652C264.184 75.3913 264.271 75.0435 264.271 74.6956C264.271 74.3478 264.184 74.0869 264.097 73.8261C264.01 73.5652 263.836 73.3913 263.575 73.3043C263.315 73.2174 262.967 73.1304 262.619 73.1304C262.184 73.1304 261.923 73.1304 261.749 73.1304Z" fill="#231F20"/>
<path d="M272.358 77.5652C272.358 78 272.358 78.3478 272.271 78.6087C272.184 78.8696 272.097 79.1304 271.923 79.3043C271.836 79.4782 271.662 79.6522 271.402 79.8261C271.228 80 270.967 80.0869 270.706 80.1739C270.445 80.2609 270.097 80.2609 269.749 80.2609C269.315 80.2609 268.88 80.1739 268.619 80.087C268.271 80 268.01 79.8261 267.836 79.5652C267.662 79.3043 267.488 79.0435 267.401 78.7826C267.315 78.4348 267.228 78.0869 267.228 77.6522V74C267.228 73.7391 267.228 73.4782 267.228 73.3913C267.228 73.3043 267.141 73.2174 267.141 73.1304C267.141 73.0435 267.054 73.0435 266.967 72.9565C266.88 72.8695 266.793 72.8695 266.619 72.7826V72.5217H268.967V72.7826C268.793 72.8695 268.619 72.8695 268.532 72.9565C268.445 73.0435 268.358 73.1304 268.358 73.2174C268.358 73.3043 268.271 73.5652 268.271 73.8261V77.7391C268.271 78.0869 268.271 78.4348 268.358 78.6087C268.445 78.7826 268.532 79.0435 268.706 79.2174C268.88 79.3913 268.967 79.4782 269.228 79.4782C269.402 79.5652 269.662 79.5652 269.923 79.5652C270.184 79.5652 270.445 79.4783 270.619 79.3913C270.793 79.3043 270.967 79.1304 271.141 78.9565C271.315 78.7826 271.402 78.5217 271.402 78.2609C271.488 78 271.488 77.6522 271.488 77.2174V73.7391C271.488 73.3913 271.488 73.2174 271.402 73.0435C271.315 72.8696 271.315 72.8695 271.228 72.7826C271.141 72.6956 270.967 72.6956 270.793 72.6087V72.3478H272.967V72.6087C272.793 72.6956 272.619 72.6956 272.532 72.7826C272.445 72.8695 272.358 72.9565 272.358 73.0435C272.358 73.1304 272.271 73.3913 272.271 73.6522V77.5652H272.358Z" fill="#231F20"/>
<path d="M279.228 72.7826V74.3478H278.706C278.619 74 278.532 73.7391 278.358 73.5652C278.184 73.3913 278.097 73.2174 277.923 73.1304C277.749 73.0435 277.488 73.0435 277.314 73.0435C276.967 73.0435 276.619 73.1304 276.271 73.3913C275.923 73.6522 275.749 74 275.575 74.5217C275.401 75.0435 275.314 75.6522 275.314 76.3478C275.314 77.0435 275.401 77.6522 275.488 78.1739C275.575 78.6956 275.836 79.0435 276.097 79.3043C276.358 79.5652 276.706 79.6522 277.141 79.6522C277.401 79.6522 277.662 79.6522 277.923 79.5652C278.184 79.4783 278.271 79.3043 278.445 79.1304C278.619 78.9565 278.706 78.6956 278.793 78.2609H279.314V79.8261C278.967 79.913 278.619 80 278.271 80C277.923 80 277.488 80.087 277.054 80.087C276.097 80.087 275.401 79.7391 274.967 79.1304C274.532 78.5217 274.271 77.5652 274.271 76.2609C274.271 75.4782 274.358 74.7826 274.619 74.1739C274.88 73.5652 275.228 73.1304 275.749 72.7826C276.271 72.4348 276.793 72.2609 277.488 72.2609C277.836 72.2609 278.097 72.2609 278.445 72.3478C278.793 72.4348 278.88 72.6956 279.228 72.7826Z" fill="#231F20"/>
<path d="M280.184 72.6956H286.184V74.6087H285.662C285.575 74.2609 285.488 74 285.401 73.8261C285.315 73.6522 285.228 73.4782 285.141 73.3913C285.054 73.3043 284.967 73.2174 284.88 73.2174C284.793 73.2174 284.619 73.1304 284.445 73.1304H283.749V78.7826C283.749 78.9565 283.749 79.1304 283.749 79.3044C283.749 79.3913 283.836 79.5652 283.836 79.6522C283.923 79.7392 283.923 79.8261 284.01 79.8261C284.097 79.8261 284.184 79.9131 284.445 79.9131V80.1739H281.923V79.9131C282.01 79.9131 282.097 79.8261 282.184 79.8261C282.271 79.8261 282.358 79.7391 282.358 79.7391C282.358 79.7391 282.445 79.6522 282.532 79.5652C282.619 79.4783 282.619 79.3913 282.619 79.3044C282.619 79.2174 282.619 79.0435 282.619 78.7826V73.1304H281.923C281.749 73.1304 281.575 73.1304 281.488 73.2174C281.402 73.3043 281.315 73.3043 281.141 73.3913C281.054 73.4782 280.967 73.6522 280.88 73.8261C280.793 74 280.706 74.2609 280.619 74.5217H280.097V72.6956H280.184Z" fill="#231F20"/>
<path d="M292.706 77.5652C292.706 78 292.706 78.3478 292.619 78.6087C292.532 78.8696 292.445 79.1304 292.271 79.3043C292.184 79.4782 292.01 79.6522 291.749 79.8261C291.575 80 291.315 80.0869 291.054 80.1739C290.793 80.2609 290.445 80.2609 290.097 80.2609C289.662 80.2609 289.228 80.1739 288.967 80.087C288.619 80 288.358 79.8261 288.184 79.5652C288.01 79.3043 287.836 79.0435 287.749 78.7826C287.662 78.4348 287.575 78.0869 287.575 77.6522V74C287.575 73.7391 287.575 73.4782 287.575 73.3913C287.575 73.3043 287.488 73.2174 287.488 73.1304C287.488 73.0435 287.401 73.0435 287.314 72.9565C287.228 72.8695 287.141 72.8695 286.967 72.7826V72.5217H289.315V72.7826C289.141 72.8695 288.967 72.8695 288.88 72.9565C288.793 73.0435 288.706 73.1304 288.706 73.2174C288.706 73.3043 288.619 73.5652 288.619 73.8261V77.7391C288.619 78.0869 288.619 78.4348 288.706 78.6087C288.793 78.7826 288.88 79.0435 289.054 79.2174C289.228 79.3913 289.315 79.4782 289.575 79.4782C289.749 79.5652 290.01 79.5652 290.271 79.5652C290.532 79.5652 290.793 79.4783 290.967 79.3913C291.141 79.3043 291.315 79.1304 291.488 78.9565C291.662 78.7826 291.749 78.5217 291.749 78.2609C291.836 78 291.836 77.6522 291.836 77.2174V73.7391C291.836 73.3913 291.836 73.2174 291.749 73.0435C291.662 72.8696 291.662 72.8695 291.575 72.7826C291.488 72.6956 291.315 72.6956 291.141 72.6087V72.3478H293.315V72.6087C293.141 72.6956 292.967 72.6956 292.88 72.7826C292.793 72.8695 292.706 72.9565 292.706 73.0435C292.706 73.1304 292.619 73.3913 292.619 73.6522V77.5652H292.706Z" fill="#231F20"/>
<path d="M296.184 76.9565V78.8695C296.184 79.1304 296.184 79.3043 296.184 79.4782C296.184 79.6522 296.271 79.6522 296.271 79.7391C296.271 79.8261 296.358 79.8261 296.445 79.913C296.532 79.913 296.619 80 296.793 80V80.2609H294.445V80C294.706 79.913 294.793 79.913 294.88 79.8261C294.967 79.7391 294.967 79.6522 295.054 79.4782C295.141 79.3043 295.054 79.1304 295.054 78.8695V74.0869C295.054 73.8261 295.054 73.6522 295.054 73.5652C295.054 73.4783 294.967 73.3913 294.967 73.3043C294.967 73.2174 294.88 73.2174 294.793 73.1304C294.706 73.1304 294.619 73.0435 294.445 73.0435V72.7826H297.141C298.01 72.7826 298.619 72.9565 299.054 73.2174C299.488 73.4782 299.662 74 299.662 74.6956C299.662 75.2174 299.488 75.6522 299.228 76C298.967 76.3478 298.532 76.6087 298.01 76.8695V76.9565C298.271 77.0435 298.445 77.2174 298.619 77.3913C298.793 77.5652 298.967 77.8261 299.141 78.1739L299.662 79.0435C299.836 79.3043 299.923 79.4783 300.01 79.6522C300.097 79.8261 300.184 79.913 300.358 80C300.445 80.0869 300.619 80.0869 300.793 80.1739V80.4348H299.228C299.054 80.2609 298.967 80 298.793 79.8261C298.706 79.5652 298.532 79.3913 298.445 79.1304L297.923 78.1739C297.749 77.913 297.662 77.6522 297.575 77.5652C297.488 77.3913 297.401 77.3043 297.314 77.3043C297.228 77.3043 297.141 77.2174 297.054 77.2174C296.967 77.2174 296.793 77.2174 296.619 77.2174H296.184V76.9565ZM296.184 73.1304V76.4348H296.793C297.141 76.4348 297.401 76.4348 297.575 76.3478C297.749 76.2609 297.923 76.1739 298.097 76.0869C298.271 76 298.445 75.7391 298.532 75.5652C298.619 75.3913 298.706 75.0435 298.706 74.6956C298.706 74.3478 298.619 74.0869 298.532 73.8261C298.445 73.5652 298.271 73.3913 298.01 73.3043C297.749 73.2174 297.401 73.1304 297.054 73.1304C296.706 73.1304 296.445 73.1304 296.184 73.1304Z" fill="#231F20"/>
<path d="M306.706 72.6957V74.3478H306.184C306.097 74.1739 306.097 74 306.01 73.913C305.923 73.7391 305.923 73.6522 305.836 73.5652C305.749 73.4783 305.662 73.3913 305.662 73.3044C305.575 73.2174 305.488 73.2174 305.401 73.2174C305.314 73.2174 305.141 73.2174 305.054 73.2174H303.314V76.087H304.532C304.706 76.087 304.793 76.087 304.88 76C304.967 75.913 305.054 75.9131 305.141 75.7391C305.227 75.6522 305.227 75.4783 305.314 75.2174H305.836V77.3043H305.314C305.227 77.0435 305.227 76.9565 305.141 76.7826C305.054 76.6087 304.967 76.6087 304.88 76.5217C304.793 76.4348 304.706 76.4348 304.532 76.4348H303.314V79.6522H305.054C305.228 79.6522 305.401 79.6522 305.488 79.5652C305.575 79.4783 305.662 79.4783 305.749 79.3913C305.836 79.3043 305.923 79.2174 305.923 79.1304C306.01 79.0435 306.01 78.8696 306.097 78.7826C306.184 78.6957 306.184 78.4348 306.271 78.1739H306.793L306.706 80.087H301.575V79.8261C301.836 79.7391 301.923 79.7391 302.01 79.6522C302.097 79.5652 302.097 79.4783 302.184 79.3043C302.271 79.1304 302.184 78.9565 302.184 78.6957V73.913C302.184 73.6522 302.184 73.4783 302.184 73.3913C302.184 73.3043 302.097 73.2174 302.097 73.1304C302.097 73.0435 302.01 73.0435 301.923 72.9565C301.836 72.9565 301.749 72.8696 301.575 72.8696V72.6087H306.706V72.6957Z" fill="#231F20"/>
<path d="M108.559 20.6238C110.205 20.2792 111.259 18.6661 110.914 17.0209C110.57 15.3757 108.957 14.3213 107.311 14.6659C105.666 15.0104 104.612 16.6235 104.956 18.2687C105.301 19.914 106.914 20.9683 108.559 20.6238Z" fill="#929497"/>
<path d="M133.25 66.9678C134.895 66.6232 135.95 65.0102 135.605 63.3649C135.261 61.7197 133.648 60.6653 132.002 61.0099C130.357 61.3545 129.303 62.9675 129.647 64.6128C129.992 66.258 131.605 67.3124 133.25 66.9678Z" fill="#929497"/>
<path d="M149.767 62.6194C151.412 62.2748 152.467 60.6617 152.122 59.0165C151.778 57.3713 150.164 56.3169 148.519 56.6615C146.874 57.006 145.82 58.6191 146.164 60.2643C146.509 61.9096 148.122 62.964 149.767 62.6194Z" fill="#929497"/>
<path d="M141.764 7.58101C143.409 7.23643 144.463 5.62337 144.119 3.97814C143.774 2.33291 142.161 1.27852 140.516 1.6231C138.871 1.96767 137.816 3.58073 138.161 5.22597C138.505 6.8712 140.118 7.92559 141.764 7.58101Z" fill="#929497"/>
<path d="M104.124 31.1434C105.769 30.7988 106.824 29.1858 106.479 27.5405C106.135 25.8953 104.522 24.8409 102.876 25.1855C101.231 25.5301 100.177 27.1431 100.521 28.7884C100.866 30.4336 102.479 31.488 104.124 31.1434Z" fill="#929497"/>
<path d="M164.118 32.5304C165.764 32.1859 166.818 30.5728 166.473 28.9276C166.129 27.2823 164.516 26.228 162.871 26.5725C161.225 26.9171 160.171 28.5302 160.516 30.1754C160.86 31.8206 162.473 32.875 164.118 32.5304Z" fill="#929497"/>
</g>
<defs>
<clipPath id="clip0_244894_127">
<rect width="306.957" height="80" fill="white" transform="translate(0.097168)"/>
</clipPath>
</defs>
</svg>
