<svg width="190" height="63" viewBox="0 0 190 63" fill="none" xmlns="http://www.w3.org/2000/svg">
<path d="M16.0186 51.2285C16.0186 53.3105 17.0062 54.3516 18.9814 54.3516H28.1104C29.9788 54.3516 31.2601 54.0046 31.9541 53.3105C32.6481 52.6165 33.182 51.1217 33.5557 48.8262C33.8226 47.1178 35.0505 46.3704 37.2393 46.584C39.4814 46.7441 40.6025 47.5983 40.6025 49.1465L40.042 61.5586H5.92871V12.4707C5.92871 10.7624 5.79525 9.66797 5.52832 9.1875C5.31478 8.65365 5.02116 8.33333 4.64746 8.22656C3.63314 7.95964 2.75228 7.63932 2.00488 7.26562C1.25749 6.89193 0.883789 6.19792 0.883789 5.18359C0.883789 3.47526 2.00488 2.62109 4.24707 2.62109H12.7354C14.9242 2.62109 16.0186 3.47526 16.0186 5.18359V51.2285ZM88.8736 11.9102V26.9648H95.9205C98.6432 26.9648 100.805 26.2975 102.407 24.9629C104.062 23.5749 104.889 21.2526 104.889 17.9961C104.889 15.1133 103.955 12.9245 102.087 11.4297C100.271 9.9349 98.0292 9.1875 95.36 9.1875H91.7564C89.8346 9.1875 88.8736 10.0951 88.8736 11.9102ZM88.8736 52.1094C88.8736 53.9779 89.8613 54.9121 91.8365 54.9121H95.6002C98.9635 54.9121 101.766 54.0846 104.008 52.4297C106.304 50.7747 107.452 48.2923 107.452 44.9824C107.452 41.0319 106.357 38.2025 104.169 36.4941C102.033 34.7324 99.3372 33.8516 96.0807 33.8516H88.8736V52.1094ZM96.9615 61.5586H78.9439V12.3906C78.9439 10.7357 78.7838 9.64128 78.4635 9.10742C78.1966 8.57357 77.8229 8.22656 77.3424 8.06641C76.3281 7.74609 75.554 7.3724 75.0201 6.94531C74.5396 6.51823 74.2994 5.8776 74.2994 5.02344C74.2994 3.36849 75.207 2.54102 77.0221 2.54102H96.2408C102.22 2.54102 106.865 3.84896 110.174 6.46484C113.538 9.02734 115.219 12.6309 115.219 17.2754C115.219 20.5853 114.365 23.4147 112.657 25.7637C111.002 28.0592 109.427 29.4206 107.932 29.8477C110.228 30.3815 112.443 31.9831 114.579 34.6523C116.714 37.2682 117.782 40.7116 117.782 44.9824C117.782 49.8939 116.074 53.8978 112.657 56.9941C109.24 60.0371 104.008 61.5586 96.9615 61.5586ZM178.785 44.9824C178.625 42.7402 177.691 40.765 175.983 39.0566C174.274 37.2949 171.525 35.3997 167.735 33.3711C163.357 31.2357 160.02 28.8066 157.725 26.084C155.429 23.3079 154.308 19.8646 154.362 15.7539C154.468 11.6966 156.07 8.30664 159.166 5.58398C162.263 2.86133 166.427 1.5 171.658 1.5C174.488 1.5 177.05 1.71354 179.346 2.14062C181.641 2.56771 183.91 3.18164 186.153 3.98242V12.3906C183.11 10.7891 180.414 9.72135 178.065 9.1875C175.716 8.65365 173.687 8.38672 171.979 8.38672C170.27 8.38672 168.642 9.05404 167.094 10.3887C165.546 11.6699 164.772 13.5651 164.772 16.0742C164.772 18.3164 165.706 20.3184 167.574 22.0801C169.496 23.7884 172.539 25.7637 176.703 28.0059C180.921 30.248 184.071 32.7572 186.153 35.5332C188.288 38.2559 189.356 41.459 189.356 45.1426C189.356 49.6803 187.727 53.5775 184.471 56.834C181.268 60.0905 176.516 61.8789 170.217 62.1992C167.868 62.306 165.386 62.0924 162.77 61.5586C160.154 60.9714 158.018 60.1439 156.363 59.0762C155.296 58.4355 154.602 57.6615 154.281 56.7539C153.961 55.8464 153.961 54.8587 154.281 53.791C154.762 52.7233 155.643 52.0293 156.924 51.709C158.205 51.3353 159.673 51.6556 161.328 52.6699C162.449 53.2038 163.864 53.7109 165.572 54.1914C167.281 54.6185 168.749 54.8053 169.977 54.752C172.966 54.485 175.262 53.4707 176.863 51.709C178.465 49.9473 179.106 47.7051 178.785 44.9824Z" fill="#8CCCF3"/>
<path d="M61.615 61.5586H51.6053V29.4473C51.6053 27.7923 51.4718 26.6712 51.2049 26.084C50.938 25.4967 50.6443 25.123 50.324 24.9629C49.3631 24.696 48.6424 24.3757 48.1619 24.002C47.6814 23.6283 47.4412 23.0677 47.4412 22.3203C47.4412 20.5052 48.589 19.5977 50.8846 19.5977H58.1717C60.4673 19.5977 61.615 20.5586 61.615 22.4805V61.5586ZM61.9354 7.18555C61.9354 8.89388 61.3214 10.362 60.0936 11.5898C58.9191 12.7643 57.4777 13.3516 55.7693 13.3516C54.061 13.3516 52.6196 12.7643 51.4451 11.5898C50.2706 10.362 49.6834 8.89388 49.6834 7.18555C49.6834 5.47721 50.2706 4.00911 51.4451 2.78125C52.6196 1.5 54.061 0.859375 55.7693 0.859375C57.4777 0.859375 58.9191 1.5 60.0936 2.78125C61.3214 4.00911 61.9354 5.47721 61.9354 7.18555ZM141.437 61.5586H131.427V29.4473C131.427 27.7923 131.294 26.6712 131.027 26.084C130.76 25.4967 130.466 25.123 130.146 24.9629C129.185 24.696 128.464 24.3757 127.984 24.002C127.503 23.6283 127.263 23.0677 127.263 22.3203C127.263 20.5052 128.411 19.5977 130.706 19.5977H137.994C140.289 19.5977 141.437 20.5586 141.437 22.4805V61.5586ZM141.757 7.18555C141.757 8.89388 141.143 10.362 139.915 11.5898C138.741 12.7643 137.3 13.3516 135.591 13.3516C133.883 13.3516 132.441 12.7643 131.267 11.5898C130.093 10.362 129.505 8.89388 129.505 7.18555C129.505 5.47721 130.093 4.00911 131.267 2.78125C132.441 1.5 133.883 0.859375 135.591 0.859375C137.3 0.859375 138.741 1.5 139.915 2.78125C141.143 4.00911 141.757 5.47721 141.757 7.18555Z" fill="#F9B023"/>
</svg>
